<svg width="24" height="24" viewBox="0 0 24 24" fill="none" xmlns="http://www.w3.org/2000/svg">
<g clip-path="url(#clip0_1206_86534)">
<path d="M19.25 6H4.75C4.55109 6 4.36032 6.07902 4.21967 6.21967C4.07902 6.36032 4 6.55109 4 6.75C4 6.94891 4.07902 7.13968 4.21967 7.28033C4.36032 7.42098 4.55109 7.5 4.75 7.5H19.25C19.4489 7.5 19.6397 7.42098 19.7803 7.28033C19.921 7.13968 20 6.94891 20 6.75C20 6.55109 19.921 6.36032 19.7803 6.21967C19.6397 6.07902 19.4489 6 19.25 6Z" fill="white"/>
<path d="M16.25 11.5H7.75C7.55109 11.5 7.36032 11.579 7.21967 11.7197C7.07902 11.8603 7 12.0511 7 12.25C7 12.4489 7.07902 12.6397 7.21967 12.7803C7.36032 12.921 7.55109 13 7.75 13H16.25C16.4489 13 16.6397 12.921 16.7803 12.7803C16.921 12.6397 17 12.4489 17 12.25C17 12.0511 16.921 11.8603 16.7803 11.7197C16.6397 11.579 16.4489 11.5 16.25 11.5Z" fill="white"/>
<path d="M13.25 16.5H10.75C10.5511 16.5 10.3603 16.579 10.2197 16.7197C10.079 16.8603 10 17.0511 10 17.25C10 17.4489 10.079 17.6397 10.2197 17.7803C10.3603 17.921 10.5511 18 10.75 18H13.25C13.4489 18 13.6397 17.921 13.7803 17.7803C13.921 17.6397 14 17.4489 14 17.25C14 17.0511 13.921 16.8603 13.7803 16.7197C13.6397 16.579 13.4489 16.5 13.25 16.5Z" fill="white"/>
</g>
<defs>
<clipPath id="clip0_1206_86534">
<rect width="24" height="24" fill="white"/>
</clipPath>
</defs>
</svg>
