<svg width="110" height="49" viewBox="0 0 110 49" fill="none" xmlns="http://www.w3.org/2000/svg">
<path d="M72.7491 12.2753L67.0021 19.5323L63.3971 24.0849L57.3861 16.4935C56.4561 15.3949 55.2801 15.2296 54.6561 15.2296C54.0311 15.2296 52.8561 15.3949 51.9261 16.4935L45.9141 24.0849L42.3911 28.5383L42.3141 28.6375L42.2331 28.7404L36.5671 35.8945L33.9731 39.172C33.9181 39.2419 33.8621 39.308 33.8071 39.3741C30.1401 43.776 24.9151 46.1608 19.4731 46.1608C17.3351 46.1608 15.1631 45.7932 13.0396 45.0327C5.46303 42.3136 0.568726 35.3506 0.568726 27.2891V20.8771C0.568726 24.9263 3.84992 28.2076 7.89912 28.2076C11.9483 28.2076 15.2291 24.9263 15.2291 20.8771V27.2891C15.2291 29.9529 17.1551 30.9303 17.9851 31.228C18.8051 31.5219 20.8841 31.9849 22.5491 29.9787L27.2191 24.0849L30.7681 19.6022L30.8241 19.5323L30.8641 19.4808L36.5711 12.2753L40.4951 7.3222C40.5241 7.2855 40.5531 7.24879 40.5831 7.21569C44.0591 2.99009 49.1921 0.568695 54.6631 0.568695C60.1341 0.568695 65.2681 2.99009 68.7441 7.21569C68.7731 7.25239 68.8021 7.2855 68.8321 7.3222L72.7561 12.2753H72.7491Z" fill="#4285F4" stroke="#202124" stroke-width="1.13736" stroke-miterlimit="10"/>
<path d="M33.9691 9.00137L36.5631 12.279L30.8571 19.4845L30.8161 19.5361L30.7611 19.6057L27.2121 24.0886L22.5451 18.1949C20.8811 16.1887 18.8011 16.6515 17.9821 16.9455C17.1551 17.2432 15.2261 18.2205 15.2261 20.8845C15.2261 24.9338 11.9447 28.2149 7.89552 28.2149C3.84632 28.2149 0.568726 24.9263 0.568726 20.8772C0.568726 12.8155 5.46303 5.85247 13.0396 3.13707C20.5611 0.44007 28.6961 2.66307 33.8041 8.79197C33.8591 8.85817 33.9181 8.92797 33.9731 8.99407L33.9691 9.00137Z" fill="#EA4335" stroke="#202124" stroke-width="1.13736" stroke-miterlimit="10"/>
<path d="M42.3911 28.5346L42.3131 28.6338L42.2332 28.7367C42.2882 28.6706 42.3391 28.6045 42.3911 28.5383V28.5346Z" fill="#EA4335" stroke="#202124" stroke-width="1.13736" stroke-miterlimit="10"/>
<path d="M30.7642 19.6032C30.7932 19.5623 30.8272 19.5217 30.8602 19.4808L30.8192 19.5328L30.7642 19.6032Z" fill="#34A853" stroke="#202124" stroke-width="1.13736" stroke-miterlimit="10"/>
<path d="M108.749 20.8771V27.2889C108.749 23.2398 105.467 19.9586 101.418 19.9586C97.3692 19.9586 94.0882 23.2398 94.0882 27.2889V20.8771C94.0882 18.2132 92.1622 17.2359 91.3322 16.9382C90.5122 16.6442 88.4332 16.1812 86.7682 18.1875L82.1022 24.0812L78.5522 28.564L78.4972 28.6338L78.4572 28.6853L72.7502 35.8908L68.8262 40.8439C68.7972 40.8806 68.7672 40.9174 68.7382 40.9504C65.2622 45.1724 60.1292 47.5974 54.6582 47.5974C49.1862 47.5974 44.0532 45.176 40.5772 40.9504C40.5482 40.9136 40.5182 40.8806 40.4892 40.8439L36.5652 35.887L42.2312 28.733C42.2862 28.6669 42.3372 28.6007 42.3892 28.5346L45.9122 24.0812L51.9242 31.6725C52.8532 32.7712 54.0292 32.9365 54.6542 32.9365C55.2792 32.9365 56.4542 32.7712 57.3802 31.6725L63.3922 24.0812L66.9372 19.6022L66.9922 19.5324L67.0442 19.4662L72.7392 12.2754L75.3332 8.99777C75.3892 8.92797 75.4472 8.85817 75.5022 8.79197C80.6102 2.66307 88.7452 0.443774 96.2662 3.13707C103.839 5.85247 108.737 12.8155 108.737 20.8771H108.749Z" fill="#34A853" stroke="#202124" stroke-width="1.13736" stroke-miterlimit="10"/>
<path d="M66.9421 19.6022C66.9751 19.5581 67.0111 19.5103 67.0481 19.4662L66.9971 19.5323L66.9421 19.6022Z" fill="#FBBC04" stroke="#202124" stroke-width="1.13736" stroke-miterlimit="10"/>
<path d="M108.747 27.2889C108.747 35.3506 103.852 42.3136 96.2752 45.029C94.1522 45.7897 91.9802 46.1571 89.8422 46.1571C84.4042 46.1571 79.1792 43.7724 75.5112 39.3704C75.4532 39.3043 75.3982 39.2344 75.3422 39.1647L72.7482 35.887L78.4552 28.6816L78.4952 28.6301L78.5502 28.5604L82.1002 24.0775L86.7662 29.9712C88.4312 31.9775 90.5142 31.5146 91.3302 31.2207C92.1572 30.923 94.0862 29.9456 94.0862 27.2816C94.0862 23.2324 97.3672 19.9513 101.416 19.9513C105.465 19.9513 108.747 23.2324 108.747 27.2816V27.2889Z" fill="#FBBC04" stroke="#202124" stroke-width="1.13736" stroke-miterlimit="10"/>
</svg>
