<svg width="90" height="90" fill="none" xmlns="http://www.w3.org/2000/svg"><rect x="1" y="1" width="88" height="88" rx="7" fill="#EEE" stroke="#000" stroke-width="2"/><mask id="a" style="mask-type:alpha" maskUnits="userSpaceOnUse" x="0" y="0" width="90" height="88"><rect x="1" y="1" width="88" height="85.931" rx="7" fill="#EEE"/><rect x="1" y="1" width="88" height="85.931" rx="7" stroke="#000" stroke-width="2"/></mask><g mask="url(#a)"><path d="M21.95 75.37h48.036l7.466 1.921h-62.97l7.468-1.92Z" fill="url(#b)" stroke="#202124" stroke-width="1.5" stroke-linejoin="round"/><path fill="url(#c)" stroke="#202124" stroke-width="1.5" stroke-linejoin="round" d="M14.483 27.931h63.103v36.207H14.483z"/><path fill="url(#d)" stroke="#202124" stroke-width="1.5" stroke-linejoin="round" d="M14.492 77.26h62.982v63.332H14.492z"/><ellipse cx="28.625" cy="41.886" rx="3.191" ry="3.977" fill="#202124"/><ellipse cx="63.641" cy="41.886" rx="3.191" ry="3.977" fill="#202124"/><path fill-rule="evenodd" clip-rule="evenodd" d="M50.216 64.117H41.97V75.92c0 .303 1.846.549 4.123.549s4.123-.246 4.123-.549V64.117Z" fill="#EEE"/><path d="M41.97 64.117v-.75a.75.75 0 0 0-.75.75h.75Zm8.246 0h.75a.75.75 0 0 0-.75-.75v.75ZM41.97 75.92h-.75c0 .414.336.75.75.75v-.75Zm0 0h.75a.75.75 0 0 0-.75-.75v.75Zm8.246-.003h-.75v.032l.75-.032ZM41.97 64.867h8.246v-1.5H41.97v1.5Zm.75 11.052V64.117h-1.5V75.92h1.5Zm-.75-.75v1.5-1.5Zm.75.75h-1.5 1.5Zm3.373-.201c-1.116 0-2.112-.06-2.816-.154a4.93 4.93 0 0 1-.758-.147c-.079-.025-.085-.035-.056-.016.015.01.07.047.125.12a.66.66 0 0 1 .132.398h-1.5c0 .442.325.675.425.74.138.09.294.148.424.19.27.084.621.15 1.01.202.788.105 1.853.167 3.014.167v-1.5Zm3.373.201c0-.183.072-.32.132-.399a.51.51 0 0 1 .125-.119c.03-.019.023-.008-.056.016a4.93 4.93 0 0 1-.758.147c-.704.094-1.7.154-2.816.154v1.5c1.16 0 2.226-.062 3.014-.167.389-.052.74-.118 1.01-.203.13-.04.286-.1.424-.19.1-.064.425-.297.425-.739h-1.5Zm0 .029v-.029h1.5v-.035l-1.5.064Zm0-11.83v11.798h1.5V64.117h-1.5Z" fill="#202124"/><path fill-rule="evenodd" clip-rule="evenodd" d="M50.215 64.117H41.97v3.13c.952-.252 1.976-.39 3.043-.39 1.933 0 3.726.451 5.203 1.22v-3.96Z" fill="#202124"/><path d="M41.97 64.117v-.75h-.75v.75h.75Zm8.245 0h.75v-.75h-.75v.75Zm-8.246 3.13h-.75v.974l.942-.249-.192-.725Zm8.246.83-.346.665 1.096.57v-1.235h-.75Zm-8.246-3.21h8.246v-1.5H41.97v1.5Zm.75 2.38v-3.13h-1.5v3.13h1.5Zm-.558.725a11.148 11.148 0 0 1 2.851-.364v-1.5c-1.13 0-2.22.145-3.235.414l.384 1.45Zm2.851-.364c1.818 0 3.492.424 4.857 1.134l.693-1.33c-1.59-.828-3.502-1.304-5.55-1.304v1.5Zm4.453-3.49v3.959h1.5v-3.96h-1.5Z" fill="#202124"/><path d="M43.47 13.595h2.8v11.75h-2.8v-11.75Z" fill="#EEE" stroke="#202124" stroke-width="1.892" stroke-miterlimit="10"/><path d="M39.31 27.764a3.971 3.971 0 0 1 3.972-3.97h3.101a3.971 3.971 0 0 1 3.972 3.97H39.31Z" fill="#EEE" stroke="#202124" stroke-width="1.892" stroke-miterlimit="10"/><path fill-rule="evenodd" clip-rule="evenodd" d="M46.27 14.367h-2.8v.411c1.083.158 2.06 1.04 2.8 2.394v-2.805Z" fill="#202124"/><path d="M43.47 14.367v-.946h-.947v.946h.946Zm2.8 0h.945v-.946h-.946v.946Zm-2.8.411h-.947v.819l.81.118.136-.937Zm2.8 2.394-.831.453 1.776 3.255v-3.708h-.946Zm-2.8-1.859h2.8v-1.892h-2.8v1.892Zm.945-.535v-.411h-1.892v.411h1.892Zm-1.082.937c.657.095 1.43.672 2.106 1.91l1.66-.907c-.801-1.469-1.983-2.656-3.494-2.876l-.272 1.873Zm1.99-1.348v2.805h1.892v-2.805h-1.892Z" fill="#202124"/><ellipse cx="44.833" cy="11.734" rx="2.826" ry="2.424" fill="#EEE" stroke="#202124" stroke-width="1.892" stroke-miterlimit="10"/></g><defs><linearGradient id="b" x1="14.386" y1="76.331" x2="77.355" y2="76.331" gradientUnits="userSpaceOnUse"><stop stop-color="#5382EB"/><stop offset=".25" stop-color="#5382EB"/><stop offset=".52" stop-color="#9F6CD4"/><stop offset=".82" stop-color="#EA4335"/><stop offset="1" stop-color="#EA4335"/></linearGradient><linearGradient id="c" x1="18.99" y1="32.356" x2="77.155" y2="121.878" gradientUnits="userSpaceOnUse"><stop stop-color="#34A853"/><stop offset=".093" stop-color="#34A853"/><stop offset=".289" stop-color="#4285F4"/><stop offset=".369" stop-color="#4285F4"/><stop offset=".515" stop-color="#9F6CD4"/><stop offset=".647" stop-color="#EA4335"/><stop offset=".722" stop-color="#EA4335"/><stop offset=".82" stop-color="#F46831"/><stop offset=".905" stop-color="#FFCB32"/><stop offset="1" stop-color="#FFCB32"/></linearGradient><linearGradient id="d" x1="25.602" y1="37.221" x2="52.895" y2="122.434" gradientUnits="userSpaceOnUse"><stop stop-color="#34A853"/><stop offset=".093" stop-color="#34A853"/><stop offset=".289" stop-color="#4285F4"/><stop offset=".369" stop-color="#4285F4"/><stop offset=".515" stop-color="#9F6CD4"/><stop offset=".647" stop-color="#EA4335"/><stop offset=".722" stop-color="#EA4335"/><stop offset=".82" stop-color="#F46831"/><stop offset=".905" stop-color="#FFCB32"/><stop offset="1" stop-color="#FFCB32"/></linearGradient></defs></svg>