<svg xmlns="http://www.w3.org/2000/svg" width="283" height="172" fill="none"><mask id="a" width="283" height="172" x="0" y="0" maskUnits="userSpaceOnUse" style="mask-type:alpha"><path fill="#D9D9D9" d="M0 .508h282.61v155.491c0 8.837-7.163 16-16 16H0V.508Z"/></mask><g mask="url(#a)"><mask id="b" width="318" height="172" x="7" y="0" maskUnits="userSpaceOnUse" style="mask-type:luminance"><path fill="#fff" d="M7.342 172 289.078.508h35.887V172H7.342Z"/></mask><g stroke="#EEE" stroke-miterlimit="10" stroke-width="1.2" mask="url(#b)"><path d="M35.463 147.012h289.26M34.417 125.168h289.261M34.417 103.323h289.261M34.417 85.926h289.261M34.417 68.526h289.261M34.417 51.127h289.261M34.417 33.729h289.261M34.417 16.33h289.261"/></g><path stroke="#EEE" stroke-miterlimit="10" stroke-width="1.2" d="M288.889.508 7.152 172M313.004.508 229.499 172M178.248 172 307.062.508M301.117.508 121.645 172M70.843 172 295.179.508"/><ellipse cx="156.913" cy="108.19" fill="#202124" rx="86.585" ry="84.816"/><path fill="url(#c)" d="m156.953 23.375.176 84.815h86.449c0-45.968-38.341-84.816-86.625-84.816Z"/><path stroke="#EEE" d="m156.953 23.375.176 84.815h86.449c0-45.968-38.341-84.816-86.625-84.816Z"/><path fill="url(#d)" d="M156.954 193.259c-47.843 0-86.625-37.991-86.625-84.855h86.625v84.855Z"/><path stroke="#EEE" d="M156.954 193.259c-47.843 0-86.625-37.991-86.625-84.855h86.625v84.855Z"/><path stroke="#EEE" stroke-linejoin="round" stroke-width="1.2" d="M70.367 108.403h173.169M156.954 193.258c47.841 0 86.624-37.991 86.624-84.855 0-46.864-38.783-84.855-86.624-84.855-47.842 0-86.625 37.991-86.625 84.855 0 46.864 38.783 84.855 86.625 84.855Z"/><path stroke="#EEE" stroke-linejoin="round" stroke-width="1.2" d="M156.955 193.258c38.56 0 69.818-37.991 69.818-84.855 0-46.864-31.258-84.855-69.818-84.855S87.137 61.54 87.137 108.403c0 46.864 31.258 84.855 69.818 84.855Z"/><path stroke="#EEE" stroke-linejoin="round" stroke-width="1.2" d="M156.954 193.258c26.667 0 48.285-37.991 48.285-84.855 0-46.864-21.618-84.855-48.285-84.855-26.668 0-48.286 37.991-48.286 84.855 0 46.864 21.618 84.855 48.286 84.855Z"/><path stroke="#EEE" stroke-linejoin="round" stroke-width="1.2" d="M156.953 193.258c13.399 0 24.262-37.991 24.262-84.855 0-46.864-10.863-84.855-24.262-84.855-13.399 0-24.262 37.991-24.262 84.855 0 46.864 10.863 84.855 24.262 84.855ZM156.953 23.548V193.26"/><path stroke="#EEE" stroke-linejoin="round" stroke-width="1.2" d="M191.151 30.418c-10.062 5.693-21.741 8.951-34.197 8.951-12.456 0-24.134-3.258-34.196-8.951M89.441 161.575c20.277-10.086 43.218-15.769 67.515-15.769 24.297 0 47.238 5.683 67.514 15.769M226.057 57.223c-20.662 10.584-44.168 16.571-69.1 16.571-24.933 0-48.438-5.985-69.1-16.57"/><mask id="e" width="44" height="43" x="183" y="46" maskUnits="userSpaceOnUse" style="mask-type:luminance"><path fill="#fff" d="M226.825 46.075h-43.639v42.753h43.639V46.075Z"/></mask><g mask="url(#e)"><path fill="#202124" d="M215.204 85.5c0-8.277-2.939-15.294-8.816-21.053-5.877-5.758-13.038-8.637-21.488-8.637 8.448 0 15.611-2.879 21.488-8.637 5.877-5.758 8.816-12.774 8.816-21.051 0 8.275 2.939 15.293 8.816 21.051 5.878 5.758 13.039 8.637 21.488 8.637-8.447 0-15.61 2.88-21.488 8.637-5.877 5.758-8.816 12.774-8.816 21.052Z"/></g><path fill="#EEE" d="M219.714 80.302c0-8.275-2.939-15.293-8.816-21.051-5.877-5.758-13.039-8.637-21.488-8.637 8.447 0 15.611-2.88 21.488-8.637 5.877-5.759 8.816-12.774 8.816-21.052 0 8.276 2.939 15.293 8.816 21.052 5.877 5.758 13.038 8.637 21.488 8.637-8.447 0-15.611 2.879-21.488 8.637-5.877 5.758-8.816 12.774-8.816 21.051Z"/></g><defs><linearGradient id="c" x1="156.953" x2="208.129" y1="65.781" y2="87.683" gradientUnits="userSpaceOnUse"><stop stop-color="#1F86FB"/><stop offset=".27" stop-color="#1F86FB"/><stop offset=".75" stop-color="#00AA47"/><stop offset="1" stop-color="#00AA47"/></linearGradient><linearGradient id="d" x1="70.196" x2="156.82" y1="150.832" y2="150.832" gradientUnits="userSpaceOnUse"><stop stop-color="#FFCB32"/><stop offset=".18" stop-color="#FFCB32"/><stop offset=".53" stop-color="#F46831"/><stop offset=".79" stop-color="#EA4335"/><stop offset="1" stop-color="#EA4335"/></linearGradient></defs></svg>