<svg xmlns="http://www.w3.org/2000/svg" width="161" height="75" fill="none"><path stroke="#202124" stroke-miterlimit="10" stroke-width="2" d="M31.246 58.567h123.098M144.002 48.996V24.224M31.246 16.475h123.098"/><path fill="url(#a)" stroke="#202124" stroke-miterlimit="10" stroke-width="2" d="M16.387 31.774c8.498 0 15.387-6.889 15.387-15.387C31.774 7.89 24.886 1 16.387 1 7.89 1 1 7.89 1 16.387c0 8.498 6.89 15.387 15.387 15.387Z"/><path fill="url(#b)" stroke="#202124" stroke-miterlimit="10" stroke-width="2" d="M102.399 73.909c8.498 0 15.387-6.87 15.387-15.342 0-8.474-6.889-15.342-15.387-15.342-8.498 0-15.387 6.868-15.387 15.342 0 8.473 6.889 15.342 15.387 15.342Z"/><path fill="#EEE" stroke="#202124" stroke-miterlimit="10" stroke-width="2" d="M144.059 31.95c8.498 0 15.387-6.889 15.387-15.387 0-8.498-6.889-15.387-15.387-15.387-8.498 0-15.387 6.889-15.387 15.387 0 8.498 6.889 15.387 15.387 15.387Z"/><path fill="#202124" d="M58.943 31.774c8.498 0 15.387-6.889 15.387-15.387C74.33 7.89 67.441 1 58.943 1c-8.498 0-15.387 6.89-15.387 15.387 0 8.498 6.889 15.387 15.387 15.387ZM144.05 74c8.499 0 15.388-6.89 15.388-15.388 0-8.498-6.889-15.387-15.388-15.387-8.498 0-15.387 6.89-15.387 15.387 0 8.498 6.889 15.388 15.387 15.388Z"/><rect width="75.825" height="30.684" x="1" y="43.225" fill="#EEE" stroke="#202124" stroke-miterlimit="10" stroke-width="2" rx="15.342"/><defs><linearGradient id="a" x1="1" x2="31.774" y1="16.387" y2="16.387" gradientUnits="userSpaceOnUse"><stop stop-color="#FFCB32"/><stop offset=".24" stop-color="#FFCB32"/><stop offset=".76" stop-color="#34A853"/><stop offset="1" stop-color="#34A853"/></linearGradient><linearGradient id="b" x1="87.012" x2="117.786" y1="58.567" y2="58.567" gradientUnits="userSpaceOnUse"><stop stop-color="#FFCB32"/><stop offset=".24" stop-color="#FFCB32"/><stop offset=".76" stop-color="#34A853"/><stop offset="1" stop-color="#34A853"/></linearGradient></defs></svg>