<svg xmlns="http://www.w3.org/2000/svg" width="94" height="94" fill="none"><rect width="94" height="94" fill="#202124" rx="10"/><path fill="#202124" stroke="#EEE" stroke-miterlimit="10" stroke-width="1.2" d="M76.598 81.494s5.066-.415 6.031-.556c.965-.142 1.9-1.332 1.93-4.058.03-2.726-.301-36.76-.423-39.486-.12-2.724-.21-5.55-2.623-5.706a280.5 280.5 0 0 0-5.699-.283l.784 50.089Z"/><path fill="url(#a)" stroke="#EEE" stroke-miterlimit="10" stroke-width="1.2" d="M61.605 50.54v-8.404c0-2.54.043-3.812 1.699-4.712 1.655-.902 8.876-4.486 10.525-5.315 1.95-.983 2.483-.864 3.06-.095.406.54 1.001 1.64 1.001 7.993 0 6.354.391 33.814.436 36.848.043 3.033-.436 5.451-2.743 4.385a3837.051 3837.051 0 0 1-11.888-5.575s-1.873 0-1.873-4.794c0-4.795-.217-20.33-.217-20.33v-.001Z"/><path fill="#202124" stroke="#EEE" stroke-miterlimit="10" stroke-width="1.2" d="M30.226 13.04s-2.449.276-4.09.747c-1.643.47-3.428 2.15-3.428 5.443 0 3.292-.214 33.802-.214 37.162 0 2.613.388 4.047 1.67 5.126.612.515 1.355.87 2.147 1.073.95.245 2.498.611 3.394.655 1.357.066.523-50.208.523-50.208l-.002.001Z"/><path fill="url(#b)" stroke="#EEE" stroke-miterlimit="10" stroke-width="1.2" d="M69.541 32.468v21.707c0 4.637-1.713 7.204-5.64 7.332-3.927.127-27.415 1.603-31.555 1.74-4.14.135-7.496.135-7.282-6.787.214-6.922.357-37.835.357-37.835s-.93-6.14 6.353-5.59c7.282.549 25.559 1.692 30.128 2.028 4.57.336 7.711.94 7.711 6.183 0 5.242-.07 11.222-.07 11.222h-.002Z"/><path stroke="#EEE" stroke-miterlimit="10" stroke-width="1.2" d="m25.025 54.942-2.55-.221M25.142 47.354l-2.668-.11M25.257 34.255h-2.668M25.257 40.64h-2.668"/><path fill="#202124" stroke="#EEE" stroke-miterlimit="10" stroke-width="1.2" d="M17.27 30.822s-2.446.272-3.829.568c-1.382.295-3.894 1.13-4.08 4.44-.19 3.311-.252 31.677-.315 35.638-.066 4.136-.459 6.907 3.033 8.273.202.08.414.135.63.167l3.856.605.705-49.691Z"/><path fill="url(#c)" stroke="#EEE" stroke-miterlimit="10" stroke-width="1.2" d="M52.004 46.108s-.314 22.937-.314 25.95c0 3.015-.628 5.676-4.46 6.03-3.83.355-20.597 1.973-25.433 2.317-4.836.343-7.223.465-8.604-1.99-1.382-2.456-.738-11.027-.738-17.824 0-6.8.173-18.207.362-23.35.189-5.143 1.382-6.975 7.41-6.325 6.028.65 22.105 2.01 25.247 2.423 3.14.413 6.53 0 6.53 6.68v6.089Z"/><path stroke="#EEE" stroke-miterlimit="10" stroke-width="1.2" d="m12.97 37.242 39.033 2.53M25.375 19.735l44.24 2.392M77.887 38.139l-8.344 2.502"/><path fill="#EEE" stroke="#EEE" stroke-width="1.2" d="m52.4 61.527.133-13.054L54.614 61.4l-2.213.127ZM62.354 62.237c.16.002.342.001.544-.007a9.728 9.728 0 0 0 2.703-.479c1.01-.341 2.07-.918 2.928-1.887.568-.642 1.034-1.44 1.342-2.427-.104 1.357-.325 2.862-.785 4.323-.927 2.948-2.805 5.65-6.674 6.573l-.058-6.096Z"/><path stroke="#EEE" stroke-linejoin="round" stroke-width="1.2" d="M47.958 37.687c.641 0 1.162-.49 1.162-1.094 0-.604-.52-1.094-1.162-1.094-.642 0-1.163.49-1.163 1.094 0 .604.52 1.094 1.163 1.094ZM44.745 37.39c.642 0 1.162-.49 1.162-1.094 0-.604-.52-1.094-1.162-1.094-.642 0-1.162.49-1.162 1.094 0 .604.52 1.094 1.162 1.094ZM41.489 37.095c.642 0 1.162-.49 1.162-1.094 0-.604-.52-1.094-1.162-1.094-.642 0-1.162.49-1.162 1.094 0 .604.52 1.094 1.162 1.094ZM65.166 20.022c.641 0 1.162-.49 1.162-1.094 0-.604-.52-1.094-1.162-1.094-.642 0-1.163.49-1.163 1.094 0 .604.52 1.094 1.163 1.094ZM61.944 19.815c.642 0 1.162-.49 1.162-1.094 0-.604-.52-1.094-1.162-1.094-.642 0-1.162.49-1.162 1.094 0 .604.52 1.094 1.162 1.094ZM58.683 19.61c.642 0 1.162-.49 1.162-1.095 0-.604-.52-1.094-1.162-1.094-.642 0-1.163.49-1.163 1.094 0 .604.52 1.094 1.163 1.094ZM74.515 37.03c.54 0 .976-.633.976-1.414 0-.78-.437-1.414-.976-1.414-.54 0-.976.633-.976 1.414 0 .781.437 1.415.976 1.415ZM71.884 37.8c.418 0 .757-.57.757-1.275 0-.704-.339-1.274-.757-1.274-.419 0-.758.57-.758 1.274 0 .705.34 1.275.758 1.275Z"/><defs><linearGradient id="a" x1="12.599" x2="99.33" y1="56.512" y2="56.512" gradientUnits="userSpaceOnUse"><stop stop-color="#34A853"/><stop offset=".093" stop-color="#34A853"/><stop offset=".289" stop-color="#4285F4"/><stop offset=".369" stop-color="#4285F4"/><stop offset=".515" stop-color="#9F6CD4"/><stop offset=".647" stop-color="#EA4335"/><stop offset=".722" stop-color="#EA4335"/><stop offset=".82" stop-color="#F46831"/><stop offset=".905" stop-color="#FFCB32"/><stop offset="1" stop-color="#FFCB32"/></linearGradient><linearGradient id="b" x1="12.601" x2="99.203" y1="38.201" y2="38.201" gradientUnits="userSpaceOnUse"><stop stop-color="#34A853"/><stop offset=".093" stop-color="#34A853"/><stop offset=".289" stop-color="#4285F4"/><stop offset=".369" stop-color="#4285F4"/><stop offset=".515" stop-color="#9F6CD4"/><stop offset=".647" stop-color="#EA4335"/><stop offset=".722" stop-color="#EA4335"/><stop offset=".82" stop-color="#F46831"/><stop offset=".905" stop-color="#FFCB32"/><stop offset="1" stop-color="#FFCB32"/></linearGradient><linearGradient id="c" x1="12.305" x2="99.203" y1="55.752" y2="55.752" gradientUnits="userSpaceOnUse"><stop stop-color="#34A853"/><stop offset=".093" stop-color="#34A853"/><stop offset=".289" stop-color="#4285F4"/><stop offset=".369" stop-color="#4285F4"/><stop offset=".515" stop-color="#9F6CD4"/><stop offset=".647" stop-color="#EA4335"/><stop offset=".722" stop-color="#EA4335"/><stop offset=".82" stop-color="#F46831"/><stop offset=".905" stop-color="#FFCB32"/><stop offset="1" stop-color="#FFCB32"/></linearGradient></defs></svg>