<svg xmlns="http://www.w3.org/2000/svg" width="76" height="240" fill="none"><path fill="#EEE" stroke="#202124" stroke-miterlimit="10" stroke-width="1.2" d="m1.01 65.49 18.17-18.17C.59 28.73-25.1 17.24-53.498 17.24v25.69c21.3 0 40.567 8.618 54.51 22.56Z"/><path fill="url(#a)" stroke="#202124" stroke-miterlimit="10" stroke-width="1.2" d="m41.46 80.666 23.742-9.834C52.624 40.472 28.452 14.913-4.344 1.328l-9.832 23.735C12.063 35.931 31.4 56.378 41.461 80.668v-.002Z"/><path fill="#EEE" stroke="#202124" stroke-miterlimit="10" stroke-width="1.2" d="m41.438 159.324 23.734 9.831c13.585-32.797 12.605-67.962.029-98.323l-23.74 9.834c10.06 24.29 10.845 52.421-.023 78.658Z"/><path fill="url(#b)" stroke="#202124" stroke-miterlimit="10" stroke-width="1.2" d="M41.438 159.324c-10.867 26.237-31.314 45.576-55.604 55.637l9.834 23.741c30.361-12.576 55.92-36.748 69.506-69.546l-23.736-9.83v-.002Z"/><path fill="#EEE" stroke="#202124" stroke-miterlimit="10" stroke-width="1.2" d="M1.01 65.49C14.953 79.433 23.57 98.7 23.57 120h25.69c0-28.4-11.49-54.09-30.08-72.68L1.01 65.49ZM1.01 174.51l18.17 18.17C37.771 174.09 49.26 148.4 49.26 120H23.57c0 21.3-8.617 40.567-22.56 54.51Z"/><path fill="#EEE" stroke="#202124" stroke-miterlimit="10" stroke-width="1.2" d="m-53.482 197.066.008 25.69c28.39-.006 54.07-11.495 72.655-30.08l-18.17-18.17c-13.938 13.939-33.2 22.555-54.493 22.56Z"/><path fill="#EEE" stroke="#202124" stroke-miterlimit="10" stroke-width="1.2" d="M-17.168 156.331c-10.04 10.04-23.187 15.061-36.331 15.061v25.696c19.717 0 39.435-7.531 54.496-22.592.003-.003.008-.007.01-.011l-18.17-18.159s-.004.003-.005.006v-.001Z"/><path fill="url(#c)" stroke="#202124" stroke-miterlimit="10" stroke-width="1.2" d="m-17.163 156.324 18.17 18.16c15.054-15.06 22.581-34.773 22.581-54.486H-2.108c0 13.143-5.02 26.286-15.055 36.326Z"/><path fill="#EEE" stroke="#202124" stroke-miterlimit="10" stroke-width="1.2" d="M-2.107 120h25.696c0-19.717-7.53-39.435-22.592-54.496l-18.166 18.165C-7.129 93.71-2.107 106.856-2.107 120Z"/><path fill="url(#d)" stroke="#202124" stroke-miterlimit="10" stroke-width="1.2" d="M-17.168 83.668.997 65.502C-14.064 50.441-33.782 42.91-53.499 42.91v25.696c13.144 0 26.29 5.021 36.33 15.062Z"/><defs><linearGradient id="a" x1="24.169" x2="28.518" y1="34.146" y2="78.793" gradientUnits="userSpaceOnUse"><stop stop-color="#FFCB32"/><stop offset=".24" stop-color="#FFCB32"/><stop offset=".76" stop-color="#34A853"/><stop offset="1" stop-color="#34A853"/></linearGradient><linearGradient id="b" x1="15.859" x2="60.156" y1="200.453" y2="178.906" gradientUnits="userSpaceOnUse"><stop stop-color="#4285F4"/><stop offset=".27" stop-color="#4285F4"/><stop offset=".75" stop-color="#34A853"/><stop offset="1" stop-color="#34A853"/></linearGradient><linearGradient id="c" x1="13.504" x2="-5.543" y1="121.433" y2="166.015" gradientUnits="userSpaceOnUse"><stop stop-color="#FFCB32"/><stop offset=".18" stop-color="#FFCB32"/><stop offset=".53" stop-color="#F46831"/><stop offset=".79" stop-color="#EA4335"/><stop offset="1" stop-color="#EA4335"/></linearGradient><linearGradient id="d" x1="-7.42" x2="-52.589" y1="71.301" y2="53.814" gradientUnits="userSpaceOnUse"><stop stop-color="#FFCB32"/><stop offset=".24" stop-color="#FFCB32"/><stop offset=".76" stop-color="#34A853"/><stop offset="1" stop-color="#34A853"/></linearGradient></defs></svg>