<svg xmlns="http://www.w3.org/2000/svg" width="69" height="59" fill="none"><path fill="url(#a)" stroke="#202124" stroke-linejoin="round" stroke-miterlimit="10" stroke-width="1.5" d="m25.1 10.7.857.396-.043.02-.829-.387L10.71 41.443 1 36.87 15.358 6.2l9.748 4.488-.005.011H25.1Zm33.104-4.733L48.384 1.5l-22.426 9.596c3.243 1.503 6.486 3.009 9.726 4.518l22.52-9.647Z"/><path fill="#EEE" stroke="#202124" stroke-linejoin="round" stroke-miterlimit="10" stroke-width="1.5" d="M67.127 36.085c-.842 1.806-1.535 3.804-2.65 5.463-.978 1.457-2.476 2.625-3.719 3.837-2.505 2.443-5.01 4.885-7.518 7.328-1.283 1.25-2.516 2.74-3.964 3.808-2.533 1.866-4.825.692-7.29-.453l-17.424-8.093-13.928-6.47 14.393-30.853 10.575 4.941 22.513-9.677c.82 2.745 2.144 5.346.467 8.013-2.014 3.202-4.727 6.116-7.043 9.112 2.729 1.274 5.456 2.55 8.184 3.823 1.941.907 4.293 1.626 6.042 2.895 1.936 1.407 2.336 4.242 1.362 6.326Z"/><path stroke="#202124" stroke-linejoin="round" stroke-miterlimit="10" stroke-width="1.5" d="m35.523 15.55-14.25 30.91M20.27 8.525 5.818 39.235M30.305 13.142l22.48-9.635M9.885 17.049l9.835 4.616M5.443 27.415l9.634 4.415M41.723 4.462l9.635 4.616M32.838 8.164l9.835 4.415"/><defs><linearGradient id="a" x1="39.384" x2="19.824" y1=".597" y2="42.119" gradientUnits="userSpaceOnUse"><stop stop-color="#4285F4"/><stop offset=".04" stop-color="#4E81F0"/><stop offset=".11" stop-color="#6E78E8"/><stop offset=".2" stop-color="#A26ADA"/><stop offset=".21" stop-color="#A769D9"/><stop offset=".31" stop-color="#FD2B25"/><stop offset=".5" stop-color="#FF5C10"/><stop offset=".69" stop-color="#FFB703"/><stop offset=".76" stop-color="#FFC600"/><stop offset=".79" stop-color="#FAC501"/><stop offset=".82" stop-color="#ECC405"/><stop offset=".85" stop-color="#D6C10B"/><stop offset=".88" stop-color="#B6BE14"/><stop offset=".91" stop-color="#8EB91F"/><stop offset=".95" stop-color="#5CB42D"/><stop offset=".98" stop-color="#23AD3D"/><stop offset="1" stop-color="#00AA47"/></linearGradient></defs></svg>