<svg xmlns="http://www.w3.org/2000/svg" width="316" height="170" fill="none"><g clip-path="url(#a)"><rect width="316" height="170" fill="#EEE" rx="12"/><path stroke="#202124" stroke-miterlimit="10" stroke-width="1.5" d="M30.496 308.91V74.21l260.124-.492V308.91H30.496ZM49.209 73.367V309M290.62 152.083H30.623M290.62 92.975H30.623M290.62 112.68H30.623M290.62 132.384H30.623M68.12 73.367V309M86.69 73.367V309M105.26 73.367V309M123.829 73.367V309M142.393 73.367V309M160.963 73.367V309M179.532 73.367V309M198.101 73.367V309M216.672 73.367V309M235.241 73.367V309M253.811 73.367V309M272.375 73.367V309"/><path fill="url(#b)" stroke="#202124" stroke-miterlimit="10" stroke-width="1.5" d="M290.62 74.16c-5.408-21.087-24.077-36.634-46.281-36.634-19.792 0-36.781 12.358-44.067 29.984-7.985-26.66-32.123-46.035-60.665-46.035-24.887 0-46.419 14.731-56.822 36.175-5.666-4.14-12.589-6.57-20.067-6.57-14.847 0-27.513 9.594-32.464 23.08H290.62Z"/><path fill="#202124" d="M68.153 112.657H48.895v19.806h19.258v-19.806ZM106.025 92.85H86.767v19.807h19.258V92.85ZM124.302 151.602h-19.258v19.806h19.258v-19.806ZM179.802 112.323h-19.258v19.806h19.258v-19.806ZM235.621 93.185h-19.258v19.806h19.258V93.185ZM272.821 73.73h-19.259v19.806h19.259V73.729Z"/></g><rect width="314" height="168" x="1" y="1" stroke="#202124" stroke-width="2" rx="11"/><defs><linearGradient id="b" x1="30.259" x2="290.62" y1="47.817" y2="47.817" gradientUnits="userSpaceOnUse"><stop stop-color="#4285F4"/><stop offset=".27" stop-color="#4285F4"/><stop offset=".68" stop-color="#34A853"/><stop offset="1" stop-color="#34A853"/></linearGradient><clipPath id="a"><rect width="316" height="170" fill="#fff" rx="12"/></clipPath></defs></svg>