<svg xmlns="http://www.w3.org/2000/svg" width="170" height="72" fill="none"><rect width="77" height="14" x="1" y="2" fill="url(#a)" stroke="#EEE" stroke-width="2" rx="7"/><rect width="59" height="14" x="64" y="29" fill="url(#b)" stroke="#EEE" stroke-width="2" rx="7"/><rect width="52" height="14" x="1" y="29" fill="#202124" stroke="#EEE" stroke-width="2" rx="7"/><rect width="63" height="14" x="90" y="2" fill="#202124" stroke="#EEE" stroke-width="2" rx="7"/><rect width="115" height="14" fill="url(#c)" stroke="#EEE" stroke-width="2" rx="7" transform="matrix(-1 0 0 1 116 56)"/><path fill="#202124" stroke="#EEE" stroke-miterlimit="10" stroke-width="2" d="m157.706 27.668.044-.043c2.605-2.58 5.22-5.149 7.851-7.701 3.376-3.276 3.206-8.96-.007-11.626-1.674-1.39-3.028-3.157-4.655-4.609-1.005-.895-2.164-1.76-3.409-2.218-3.245-1.195-5.904-.008-8.26 2.342-2.862 2.858-5.409 5.398-7.717 7.701L99.932 52.912l-.308.306c-1.003.997-1.424 1.983-1.47 3.39-.138 4.073-.189 13.306-.13 14.351.656.067 9.117.011 13.369-.008 1.803.08 3.137-.384 4.421-1.496l41.892-41.787Z"/><path stroke="#EEE" stroke-miterlimit="10" stroke-width="2" d="M115.807 69.454 99.926 52.91M141.554 11.518l16.153 16.153"/><defs><linearGradient id="a" x1="1.035" x2="78.035" y1="9" y2="9" gradientUnits="userSpaceOnUse"><stop stop-color="#4285F4"/><stop offset=".27" stop-color="#4285F4"/><stop offset=".75" stop-color="#34A853"/><stop offset="1" stop-color="#34A853"/></linearGradient><linearGradient id="b" x1="64.027" x2="123.027" y1="36" y2="36" gradientUnits="userSpaceOnUse"><stop stop-color="#4285F4"/><stop offset=".27" stop-color="#4285F4"/><stop offset=".75" stop-color="#34A853"/><stop offset="1" stop-color="#34A853"/></linearGradient><linearGradient id="c" x1=".053" x2="115.053" y1="7" y2="7" gradientUnits="userSpaceOnUse"><stop stop-color="#4285F4"/><stop offset=".27" stop-color="#4285F4"/><stop offset=".75" stop-color="#34A853"/><stop offset="1" stop-color="#34A853"/></linearGradient></defs></svg>