<svg width="810" height="408" viewBox="0 0 810 408" fill="none" xmlns="http://www.w3.org/2000/svg">
<g clip-path="url(#clip0_1820_34101)">
<g clip-path="url(#clip1_1820_34101)">
<rect width="1440" height="410" transform="translate(-630)" fill="#EEEEEE"/>
<mask id="mask0_1820_34101" style="mask-type:luminance" maskUnits="userSpaceOnUse" x="71" y="0" width="744" height="417">
<path d="M730.984 1H813.668V416H74.8881L730.984 1Z" fill="white" stroke="white" stroke-width="2"/>
</mask>
<g mask="url(#mask0_1820_34101)">
<path d="M137.241 356.241H814.104" stroke="#202124" stroke-width="2" stroke-miterlimit="10"/>
<path d="M134.791 303.123H811.654" stroke="#202124" stroke-width="2" stroke-miterlimit="10"/>
<path d="M134.791 250.007H811.654" stroke="#202124" stroke-width="2" stroke-miterlimit="10"/>
<path d="M134.791 207.701H811.654" stroke="#202124" stroke-width="2" stroke-miterlimit="10"/>
<path d="M134.791 165.393H811.654" stroke="#202124" stroke-width="2" stroke-miterlimit="10"/>
<path d="M134.791 123.087H811.654" stroke="#202124" stroke-width="2" stroke-miterlimit="10"/>
<path d="M134.791 80.7812H811.654" stroke="#202124" stroke-width="2" stroke-miterlimit="10"/>
<path d="M134.791 38.4717H811.654" stroke="#202124" stroke-width="2" stroke-miterlimit="10"/>
</g>
<path d="M730.258 0L71 417" stroke="#202124" stroke-width="2" stroke-miterlimit="10"/>
<path d="M719.505 417L800.583 0" stroke="#202124" stroke-width="2" stroke-miterlimit="10"/>
<path d="M786.682 0L591.283 417" stroke="#202124" stroke-width="2" stroke-miterlimit="10"/>
<path d="M471.358 417L772.779 0" stroke="#202124" stroke-width="2" stroke-miterlimit="10"/>
<path d="M758.878 0L338.917 417" stroke="#202124" stroke-width="2" stroke-miterlimit="10"/>
<path d="M220.035 417L744.977 0" stroke="#202124" stroke-width="2" stroke-miterlimit="10"/>
<mask id="mask1_1820_34101" style="mask-type:alpha" maskUnits="userSpaceOnUse" x="240" y="52" width="523" height="365">
<rect x="240" y="52" width="523" height="365" fill="#D9D9D9"/>
</mask>
<g mask="url(#mask1_1820_34101)">
<circle cx="491.528" cy="286.245" r="213.245" fill="#EEEEEE"/>
<path d="M491.626 73.0034L492.059 286.248H704.969C704.969 170.674 610.542 73.0034 491.626 73.0034Z" fill="url(#paint0_linear_1820_34101)"/>
<path d="M491.626 500.131C373.797 500.131 278.282 404.611 278.282 286.787H491.626V500.131Z" fill="url(#paint1_linear_1820_34101)"/>
<path d="M278.367 286.782H704.858" stroke="#202124" stroke-width="1.61816" stroke-linejoin="round"/>
<path d="M491.626 500.127C609.452 500.127 704.969 404.61 704.969 286.783C704.969 168.957 609.452 73.4399 491.626 73.4399C373.799 73.4399 278.282 168.957 278.282 286.783C278.282 404.61 373.799 500.127 491.626 500.127Z" stroke="#202124" stroke-width="2" stroke-linejoin="round"/>
<path d="M491.626 500.127C586.592 500.127 663.578 404.61 663.578 286.783C663.578 168.957 586.592 73.4399 491.626 73.4399C396.659 73.4399 319.673 168.957 319.673 286.783C319.673 404.61 396.659 500.127 491.626 500.127Z" stroke="#202124" stroke-width="2" stroke-linejoin="round"/>
<path d="M491.626 500.127C557.304 500.127 610.546 404.61 610.546 286.783C610.546 168.957 557.304 73.4399 491.626 73.4399C425.948 73.4399 372.706 168.957 372.706 286.783C372.706 404.61 425.948 500.127 491.626 500.127Z" stroke="#202124" stroke-width="2" stroke-linejoin="round"/>
<path d="M491.625 500.127C524.626 500.127 551.378 404.61 551.378 286.783C551.378 168.957 524.626 73.4399 491.625 73.4399C458.625 73.4399 431.873 168.957 431.873 286.783C431.873 404.61 458.625 500.127 491.625 500.127Z" stroke="#202124" stroke-width="2" stroke-linejoin="round"/>
<path d="M491.626 73.4399V500.131" stroke="#202124" stroke-width="2" stroke-linejoin="round"/>
<path d="M575.847 90.71C551.066 105.025 522.304 113.217 491.626 113.217C460.948 113.217 432.186 105.025 407.405 90.71" stroke="#202124" stroke-width="2" stroke-linejoin="round"/>
<path d="M325.347 420.469C375.285 395.111 431.786 380.82 491.625 380.82C551.464 380.82 607.966 395.111 657.903 420.469" stroke="#202124" stroke-width="2" stroke-linejoin="round"/>
<path d="M661.814 158.106C610.925 184.717 553.035 199.77 491.63 199.77C430.225 199.77 372.335 184.721 321.445 158.106" stroke="#202124" stroke-width="2" stroke-linejoin="round"/>
</g>
<mask id="mask2_1820_34101" style="mask-type:luminance" maskUnits="userSpaceOnUse" x="585" y="145" width="89" height="89">
<path d="M673.03 145.685H585V233.544H673.03V145.685Z" fill="white"/>
</mask>
<g mask="url(#mask2_1820_34101)">
<path d="M649.588 226.702C649.588 209.695 643.66 195.273 631.804 183.44C619.948 171.607 605.502 165.691 588.458 165.691C605.498 165.691 619.948 159.774 631.804 147.941C643.66 136.108 649.588 121.691 649.588 104.68C649.588 121.686 655.516 136.108 667.372 147.941C679.227 159.774 693.673 165.691 710.717 165.691C693.677 165.691 679.227 171.607 667.372 183.44C655.516 195.273 649.588 209.691 649.588 226.702Z" fill="#202124"/>
</g>
<path d="M658.683 216.022C658.683 199.015 652.756 184.593 640.9 172.76C629.044 160.927 614.598 155.011 597.554 155.011C614.594 155.011 629.044 149.094 640.9 137.262C652.756 125.429 658.683 111.011 658.683 94C658.683 111.007 664.611 125.429 676.467 137.262C688.323 149.094 702.769 155.011 719.813 155.011C702.773 155.011 688.323 160.927 676.467 172.76C664.611 184.593 658.683 199.011 658.683 216.022Z" fill="#EEEEEE" stroke="#231F20" stroke-width="2" stroke-miterlimit="10"/>
</g>
</g>
<defs>
<linearGradient id="paint0_linear_1820_34101" x1="491.626" y1="179.624" x2="618.459" y2="232.795" gradientUnits="userSpaceOnUse">
<stop stop-color="#1F86FB"/>
<stop offset="0.27" stop-color="#1F86FB"/>
<stop offset="0.75" stop-color="#00AA47"/>
<stop offset="1" stop-color="#00AA47"/>
</linearGradient>
<linearGradient id="paint1_linear_1820_34101" x1="278.282" y1="393.457" x2="443.695" y2="393.457" gradientUnits="userSpaceOnUse">
<stop stop-color="#FFC700"/>
<stop offset="0.18" stop-color="#FFC700"/>
<stop offset="0.53" stop-color="#FF5C10"/>
<stop offset="0.79" stop-color="#FD2B25"/>
<stop offset="1" stop-color="#FD2B25"/>
</linearGradient>
<clipPath id="clip0_1820_34101">
<rect width="810" height="408" fill="white"/>
</clipPath>
<clipPath id="clip1_1820_34101">
<rect width="1440" height="410" fill="white" transform="translate(-630)"/>
</clipPath>
</defs>
</svg>
