<svg xmlns="http://www.w3.org/2000/svg" width="316" height="170" fill="none"><g clip-path="url(#a)"><rect width="316" height="170" fill="#EEE" rx="12"/><path fill="url(#b)" stroke="#202124" stroke-miterlimit="10" stroke-width="1.5" d="m113.376 28.613 10.147-10.38S124.554 17 126.98 17h96.513c3.947 0 7.141 3.29 7.141 7.345v79.789s0 2.348-1.5 3.917l-10.197 10.441-105.561-89.879Z"/><path fill="url(#c)" stroke="#202124" stroke-miterlimit="10" stroke-width="1.5" d="m104.075 38.179 10.148-10.38s1.03-1.233 3.456-1.233h96.513c3.947 0 7.141 3.29 7.141 7.344V113.7s0 2.348-1.5 3.917l-10.197 10.442-105.561-89.88Z"/><path fill="url(#d)" stroke="#202124" stroke-miterlimit="10" stroke-width="1.5" d="m94.775 47.739 10.147-10.38s1.03-1.233 3.457-1.233h96.512c3.947 0 7.142 3.29 7.142 7.345v79.789s0 2.348-1.501 3.917l-10.197 10.441-105.56-89.879Z"/><path fill="url(#e)" stroke="#202124" stroke-miterlimit="10" stroke-width="1.5" d="M86.054 56.709 96.2 46.329s1.03-1.233 3.457-1.233h96.513c3.947 0 7.141 3.29 7.141 7.344v79.789s0 2.348-1.501 3.917l-10.197 10.442-105.56-89.88Z"/><path fill="#EEE" stroke="#202124" stroke-linejoin="round" stroke-width="1.5" d="M187.885 55.221H89.818c-3.088 0-5.591 2.575-5.591 5.75v81.384c0 3.176 2.503 5.751 5.59 5.751h98.068c3.088 0 5.592-2.575 5.592-5.751V60.972c0-3.176-2.504-5.75-5.592-5.75Z"/><path stroke="#202124" stroke-linejoin="round" stroke-width="1.5" d="M84.227 68.75h109.245M170.418 64.736c1.419 0 2.57-1.184 2.57-2.644 0-1.46-1.151-2.643-2.57-2.643-1.42 0-2.57 1.183-2.57 2.643 0 1.46 1.15 2.644 2.57 2.644ZM178.129 64.736c1.419 0 2.57-1.184 2.57-2.644 0-1.46-1.151-2.643-2.57-2.643-1.42 0-2.571 1.183-2.571 2.643 0 1.46 1.151 2.644 2.571 2.644ZM185.835 64.736c1.419 0 2.57-1.184 2.57-2.644 0-1.46-1.151-2.643-2.57-2.643-1.42 0-2.57 1.183-2.57 2.643 0 1.46 1.15 2.644 2.57 2.644Z"/><path fill="url(#f)" stroke="#202124" stroke-miterlimit="10" stroke-width="1.5" d="m259.145 28.613 10.147-10.38S270.322 17 272.749 17h96.513c3.947 0 7.141 3.29 7.141 7.345v79.789s0 2.348-1.501 3.917l-10.197 10.441-105.56-89.879Z"/><path fill="url(#g)" stroke="#202124" stroke-miterlimit="10" stroke-width="1.5" d="m249.845 38.179 10.147-10.38s1.03-1.233 3.457-1.233h96.513c3.947 0 7.141 3.29 7.141 7.344V113.7s0 2.348-1.501 3.917l-10.197 10.442-105.56-89.88Z"/><path fill="url(#h)" stroke="#202124" stroke-miterlimit="10" stroke-width="1.5" d="m240.544 47.739 10.147-10.38s1.031-1.233 3.457-1.233h96.513c3.947 0 7.141 3.29 7.141 7.345v79.789s0 2.348-1.5 3.917l-10.197 10.441-105.561-89.879Z"/><path fill="url(#i)" stroke="#202124" stroke-miterlimit="10" stroke-width="1.5" d="m231.828 56.709 10.148-10.38s1.03-1.233 3.456-1.233h96.513c3.947 0 7.141 3.29 7.141 7.344v79.789s0 2.348-1.5 3.917l-10.197 10.442-105.561-89.88Z"/><path fill="#EEE" stroke="#202124" stroke-linejoin="round" stroke-width="1.5" d="M333.654 55.221h-98.068c-3.088 0-5.591 2.575-5.591 5.75v81.384c0 3.176 2.503 5.751 5.591 5.751h98.068c3.088 0 5.591-2.575 5.591-5.751V60.972c0-3.176-2.503-5.75-5.591-5.75Z"/><path stroke="#202124" stroke-linejoin="round" stroke-width="1.5" d="M229.995 68.75h109.25M316.187 64.736c1.419 0 2.57-1.184 2.57-2.644 0-1.46-1.151-2.643-2.57-2.643-1.42 0-2.571 1.183-2.571 2.643 0 1.46 1.151 2.644 2.571 2.644Z"/><path fill="url(#j)" stroke="#202124" stroke-miterlimit="10" stroke-width="1.5" d="m-33.067 28.613 10.147-10.38S-21.89 17-19.463 17h96.512c3.947 0 7.142 3.29 7.142 7.345v79.789s0 2.348-1.5 3.917l-10.198 10.441-105.56-89.879Z"/><path fill="url(#k)" stroke="#202124" stroke-miterlimit="10" stroke-width="1.5" d="m-42.368 38.179 10.147-10.38s1.03-1.233 3.457-1.233H67.75c3.947 0 7.141 3.29 7.141 7.344V113.7s0 2.348-1.5 3.917l-10.197 10.442-105.561-89.88Z"/><path fill="url(#l)" stroke="#202124" stroke-miterlimit="10" stroke-width="1.5" d="m-51.668 47.739 10.148-10.38s1.03-1.233 3.456-1.233H58.45c3.947 0 7.141 3.29 7.141 7.345v79.789s0 2.348-1.5 3.917l-10.197 10.441-105.561-89.879Z"/><path fill="url(#m)" stroke="#202124" stroke-miterlimit="10" stroke-width="1.5" d="m-60.384 56.709 10.148-10.38s1.03-1.233 3.456-1.233h96.513c3.947 0 7.141 3.29 7.141 7.344v79.789s0 2.348-1.5 3.917l-10.197 10.442-105.56-89.88Z"/><path fill="#EEE" stroke="#202124" stroke-linejoin="round" stroke-width="1.5" d="M41.442 55.221h-98.067c-3.089 0-5.592 2.575-5.592 5.75v81.384c0 3.176 2.503 5.751 5.591 5.751h98.068c3.088 0 5.591-2.575 5.591-5.751V60.972c0-3.176-2.503-5.75-5.59-5.75Z"/><path stroke="#202124" stroke-linejoin="round" stroke-width="1.5" d="M-62.217 68.75h109.25M23.975 64.736c1.42 0 2.57-1.184 2.57-2.644 0-1.46-1.15-2.643-2.57-2.643s-2.57 1.183-2.57 2.643c0 1.46 1.15 2.644 2.57 2.644ZM31.686 64.736c1.42 0 2.57-1.184 2.57-2.644 0-1.46-1.15-2.643-2.57-2.643-1.419 0-2.57 1.183-2.57 2.643 0 1.46 1.151 2.644 2.57 2.644ZM39.392 64.736c1.42 0 2.57-1.184 2.57-2.644 0-1.46-1.15-2.643-2.57-2.643s-2.57 1.183-2.57 2.643c0 1.46 1.15 2.644 2.57 2.644Z"/><path fill="url(#n)" stroke="#202124" stroke-miterlimit="10" stroke-width="1.5" d="M143.204 83.938 44.221 96.962l34.74 26.552 6.37 44.038 57.873-83.614Z"/><path fill="#202124" d="m143.679 82.736-20.245 65.614H98.598l45.081-65.614Z"/></g><rect width="314" height="168" x="1" y="1" stroke="#202124" stroke-width="2" rx="11"/><defs><linearGradient id="b" x1="228.931" x2="159.585" y1="9.013" y2="76.439" gradientUnits="userSpaceOnUse"><stop stop-color="#FFC700"/><stop offset=".18" stop-color="#FFC700"/><stop offset=".53" stop-color="#FF5C10"/><stop offset=".79" stop-color="#FD2B25"/><stop offset="1" stop-color="#FD2B25"/></linearGradient><linearGradient id="c" x1="219.63" x2="150.284" y1="18.579" y2="86.004" gradientUnits="userSpaceOnUse"><stop stop-color="#FFC700"/><stop offset=".18" stop-color="#FFC700"/><stop offset=".53" stop-color="#FF5C10"/><stop offset=".79" stop-color="#FD2B25"/><stop offset="1" stop-color="#FD2B25"/></linearGradient><linearGradient id="d" x1="210.329" x2="140.983" y1="28.139" y2="95.57" gradientUnits="userSpaceOnUse"><stop stop-color="#FFC700"/><stop offset=".18" stop-color="#FFC700"/><stop offset=".53" stop-color="#FF5C10"/><stop offset=".79" stop-color="#FD2B25"/><stop offset="1" stop-color="#FD2B25"/></linearGradient><linearGradient id="e" x1="201.613" x2="132.263" y1="37.109" y2="104.534" gradientUnits="userSpaceOnUse"><stop stop-color="#FFC700"/><stop offset=".18" stop-color="#FFC700"/><stop offset=".53" stop-color="#FF5C10"/><stop offset=".79" stop-color="#FD2B25"/><stop offset="1" stop-color="#FD2B25"/></linearGradient><linearGradient id="f" x1="374.699" x2="305.354" y1="9.013" y2="76.439" gradientUnits="userSpaceOnUse"><stop stop-color="#00AC37"/><stop offset=".27" stop-color="#00AC37"/><stop offset=".43" stop-color="#00A26C"/><stop offset=".63" stop-color="#0096AB"/><stop offset=".79" stop-color="#008ED8"/><stop offset=".92" stop-color="#0088F4"/><stop offset="1" stop-color="#0087FF"/></linearGradient><linearGradient id="g" x1="365.399" x2="296.054" y1="18.579" y2="86.004" gradientUnits="userSpaceOnUse"><stop stop-color="#00AC37"/><stop offset=".27" stop-color="#00AC37"/><stop offset=".43" stop-color="#00A26C"/><stop offset=".63" stop-color="#0096AB"/><stop offset=".79" stop-color="#008ED8"/><stop offset=".92" stop-color="#0088F4"/><stop offset="1" stop-color="#0087FF"/></linearGradient><linearGradient id="h" x1="356.099" x2="286.753" y1="28.139" y2="95.57" gradientUnits="userSpaceOnUse"><stop stop-color="#00AC37"/><stop offset=".27" stop-color="#00AC37"/><stop offset=".43" stop-color="#00A26C"/><stop offset=".63" stop-color="#0096AB"/><stop offset=".79" stop-color="#008ED8"/><stop offset=".92" stop-color="#0088F4"/><stop offset="1" stop-color="#0087FF"/></linearGradient><linearGradient id="i" x1="347.383" x2="278.037" y1="37.109" y2="104.534" gradientUnits="userSpaceOnUse"><stop stop-color="#00AC37"/><stop offset=".27" stop-color="#00AC37"/><stop offset=".43" stop-color="#00A26C"/><stop offset=".63" stop-color="#0096AB"/><stop offset=".79" stop-color="#008ED8"/><stop offset=".92" stop-color="#0088F4"/><stop offset="1" stop-color="#0087FF"/></linearGradient><linearGradient id="j" x1="82.487" x2="13.142" y1="9.013" y2="76.439" gradientUnits="userSpaceOnUse"><stop stop-color="#00AC37"/><stop offset=".27" stop-color="#00AC37"/><stop offset=".43" stop-color="#00A26C"/><stop offset=".63" stop-color="#0096AB"/><stop offset=".79" stop-color="#008ED8"/><stop offset=".92" stop-color="#0088F4"/><stop offset="1" stop-color="#0087FF"/></linearGradient><linearGradient id="k" x1="73.186" x2="3.841" y1="18.579" y2="86.004" gradientUnits="userSpaceOnUse"><stop stop-color="#00AC37"/><stop offset=".27" stop-color="#00AC37"/><stop offset=".43" stop-color="#00A26C"/><stop offset=".63" stop-color="#0096AB"/><stop offset=".79" stop-color="#008ED8"/><stop offset=".92" stop-color="#0088F4"/><stop offset="1" stop-color="#0087FF"/></linearGradient><linearGradient id="l" x1="63.892" x2="-5.459" y1="28.139" y2="95.57" gradientUnits="userSpaceOnUse"><stop stop-color="#00AC37"/><stop offset=".27" stop-color="#00AC37"/><stop offset=".43" stop-color="#00A26C"/><stop offset=".63" stop-color="#0096AB"/><stop offset=".79" stop-color="#008ED8"/><stop offset=".92" stop-color="#0088F4"/><stop offset="1" stop-color="#0087FF"/></linearGradient><linearGradient id="m" x1="55.171" x2="-14.175" y1="37.109" y2="104.534" gradientUnits="userSpaceOnUse"><stop stop-color="#00AC37"/><stop offset=".27" stop-color="#00AC37"/><stop offset=".43" stop-color="#00A26C"/><stop offset=".63" stop-color="#0096AB"/><stop offset=".79" stop-color="#008ED8"/><stop offset=".92" stop-color="#0088F4"/><stop offset="1" stop-color="#0087FF"/></linearGradient><linearGradient id="n" x1="82.894" x2="125.726" y1="73.131" y2="142.661" gradientUnits="userSpaceOnUse"><stop stop-color="#FFC700"/><stop offset=".18" stop-color="#FFC700"/><stop offset=".53" stop-color="#FF5C10"/><stop offset=".79" stop-color="#FD2B25"/><stop offset="1" stop-color="#FD2B25"/></linearGradient><clipPath id="a"><rect width="316" height="170" fill="#fff" rx="12"/></clipPath></defs></svg>