<svg xmlns="http://www.w3.org/2000/svg" width="94" height="94" fill="none"><g clip-path="url(#a)"><rect width="94" height="94" fill="#202124" rx="10"/><mask id="b" width="127" height="83" x="-32" y="5" maskUnits="userSpaceOnUse" style="mask-type:luminance"><path fill="#fff" d="M94.124 5H-31.049v83H94.124V5Z"/></mask><g mask="url(#b)"><path fill="#202124" d="M94.087 4.92H-31.049V88H94.087V4.92Z"/><path fill="url(#c)" stroke="#EEE" stroke-miterlimit="10" stroke-width="1.2" d="M-31.049 55.725h76.22l4.493-9.56-4.494-9.559h-76.219v19.12Z"/><path fill="#202124" stroke="#EEE" stroke-linejoin="round" stroke-miterlimit="10" stroke-width="1.2" d="M65.954 46.165 45.17 36.606l1.711 7.528H35.348v4.063H46.88l-1.71 7.528 20.783-9.56Z"/><mask id="d" width="51" height="20" x="-32" y="17" maskUnits="userSpaceOnUse" style="mask-type:luminance"><path fill="#fff" stroke="#fff" stroke-width="1.2" d="M17.945 27.001 13.69 36.05h-44.163V17.953h44.163l4.254 9.048Z"/></mask><g stroke="#202124" stroke-miterlimit="10" stroke-width="1.2" mask="url(#d)"><path d="M-31.492 61.398V13.03l55.366-.1v48.47h-55.366ZM23.875 37.176h-55.338M25.796 16.897h-57.259M.23 12.856v48.561M16.04 12.856v48.561"/></g><path fill="#EEE" stroke="#EEE" stroke-linejoin="round" stroke-miterlimit="10" stroke-width="1.2" d="m34.855 27.046-20.785-9.56 1.71 7.528H4.247v4.064H15.78l-1.71 7.528 20.785-9.56Z"/><path stroke="#EEE" stroke-miterlimit="10" stroke-width="1.2" d="M14.038 17.397H-31.01M14.038 36.609H-31.01"/><mask id="e" width="96" height="20" x="-26" y="55" maskUnits="userSpaceOnUse" style="mask-type:luminance"><path fill="#fff" stroke="#fff" stroke-width="1.2" d="m68.612 65.325-4.255 9.048h-89.195V56.277h89.195l4.255 9.048Z"/></mask><g stroke="#202124" stroke-miterlimit="10" stroke-width="1.2" mask="url(#e)"><path d="M-33.437 99.724v-48.37l107.978-.101v48.47H-33.437ZM74.541 75.5H19.204M76.462 55.221H19.204M66.706 51.18v48.562"/></g><path stroke="#EEE" stroke-miterlimit="10" stroke-width="1.2" d="M64.705 55.72h-95.78M64.705 74.934H-30.99"/><path fill="#EEE" stroke="#EEE" stroke-linejoin="round" stroke-miterlimit="10" stroke-width="1.2" d="m85.53 65.286-20.784-9.56 1.71 7.528H54.924v4.064h11.534l-1.71 7.528 20.784-9.56Z"/><path fill="url(#f)" stroke="#EEE" stroke-miterlimit="10" stroke-width="1.2" d="M59.988 17.486h34.615v19.12H59.988c-5.297 0-9.6-4.284-9.6-9.56 0-5.276 4.303-9.56 9.6-9.56Z"/><path stroke="#EEE" stroke-miterlimit="10" stroke-width="1.2" d="M79.564 36.606h21.534v19.12H79.564c-5.297 0-9.6-4.283-9.6-9.56 0-5.275 4.303-9.56 9.6-9.56Z"/><path fill="url(#g)" stroke="#EEE" stroke-miterlimit="10" stroke-width="1.2" d="M95.13 55.726h21.534v19.12H95.13c-5.297 0-9.6-4.284-9.6-9.56 0-5.276 4.303-9.56 9.6-9.56Z"/></g></g><defs><linearGradient id="c" x1="-24.431" x2="45.656" y1="46.165" y2="46.165" gradientUnits="userSpaceOnUse"><stop stop-color="#A769D9"/><stop offset=".18" stop-color="#FD2B25"/><stop offset=".24" stop-color="#FD391E"/><stop offset=".34" stop-color="#FF5C10"/><stop offset=".51" stop-color="#FFC800"/><stop offset=".54" stop-color="#FAC701"/><stop offset=".57" stop-color="#ECC505"/><stop offset=".61" stop-color="#D6C30B"/><stop offset=".64" stop-color="#B6BF14"/><stop offset=".68" stop-color="#8EBA1F"/><stop offset=".72" stop-color="#5CB42D"/><stop offset=".76" stop-color="#23AE3D"/><stop offset=".78" stop-color="#00AA47"/><stop offset="1" stop-color="#1F87FC"/></linearGradient><linearGradient id="f" x1="50.389" x2="94.602" y1="27.046" y2="27.046" gradientUnits="userSpaceOnUse"><stop stop-color="#00AA47"/><stop offset=".25" stop-color="#00AA47"/><stop offset=".73" stop-color="#1F86FB"/><stop offset="1" stop-color="#1F86FB"/></linearGradient><linearGradient id="g" x1="85.531" x2="116.662" y1="65.286" y2="65.286" gradientUnits="userSpaceOnUse"><stop stop-color="#FFC700"/><stop offset=".18" stop-color="#FFC700"/><stop offset=".53" stop-color="#FF5C10"/><stop offset=".79" stop-color="#FD2B25"/><stop offset="1" stop-color="#FD2B25"/></linearGradient><clipPath id="a"><rect width="94" height="94" fill="#fff" rx="10"/></clipPath></defs></svg>