<svg xmlns="http://www.w3.org/2000/svg" width="48" height="49" fill="none"><path fill="url(#a)" stroke="#202124" stroke-linejoin="round" stroke-miterlimit="10" stroke-width="1.2" d="m45.653 9.885-6.017-7.642c-6.283.014-11.292 7.266-17.57 7.506-2.74.105-4.873 1.987-5.589 4.593-2.706 9.84-12.905 15.2-15.477 25.08l6.658 8.48 16.884-6.364 13.59 6.408 8.84-34.02c.338-1.287.167-2.314-1.318-4.041Z"/><path stroke="#202124" stroke-linejoin="round" stroke-miterlimit="10" stroke-width="1.2" d="m43.837 9.94-8.839 34.02-13.591-6.407-16.884 6.364L1 39.421c2.526-9.709 9.684-19.394 12.344-29.065.716-2.606 2.85-4.488 5.588-4.593 6.279-.24 14.42-3.505 20.704-3.52l3.024 3.84c1.5 1.906 1.549 2.438 1.178 3.858Z"/><path stroke="#202124" stroke-linejoin="round" stroke-miterlimit="10" stroke-width="1.2" d="m38.177 48.015-13.57-6.41-6.725-8.548 13.591 6.407 6.704 8.55Z"/><path fill="#EEE" stroke="#202124" stroke-linejoin="round" stroke-miterlimit="10" stroke-width="1.2" d="m40.313 5.446-8.84 34.02-13.59-6.408L1 39.42C3.938 28.236 6.752 17.011 9.818 5.86c.717-2.606 2.85-4.488 5.59-4.593 6.278-.24 12.606-.029 18.89-.042 1.434-.004 3.379-.321 4.68.475 1.3.795 1.708 2.326 1.336 3.746h-.001Z"/><path stroke="#202124" stroke-linejoin="round" stroke-miterlimit="10" stroke-width="1.2" d="m17.882 33.057 6.66 8.481M31.519 39.464l6.658 8.482M34.448 27.54l6.658 8.482M38.177 14.28l6.658 8.483M24.797 36.309l6.658 8.482M9.399 36.309l6.66 8.483"/><defs><linearGradient id="a" x1="44.49" x2="11.265" y1="13.268" y2="46.34" gradientUnits="userSpaceOnUse"><stop stop-color="#4285F4"/><stop offset=".04" stop-color="#4E81F0"/><stop offset=".11" stop-color="#6E78E8"/><stop offset=".2" stop-color="#A26ADA"/><stop offset=".21" stop-color="#A769D9"/><stop offset=".31" stop-color="#FD2B25"/><stop offset=".5" stop-color="#FF5C10"/><stop offset=".69" stop-color="#FFB703"/><stop offset=".76" stop-color="#FFC600"/><stop offset=".79" stop-color="#FAC501"/><stop offset=".82" stop-color="#ECC405"/><stop offset=".85" stop-color="#D6C10B"/><stop offset=".88" stop-color="#B6BE14"/><stop offset=".91" stop-color="#8EB91F"/><stop offset=".95" stop-color="#5CB42D"/><stop offset=".98" stop-color="#23AD3D"/><stop offset="1" stop-color="#00AA47"/></linearGradient></defs></svg>