<svg xmlns="http://www.w3.org/2000/svg" width="437" height="348" fill="none"><mask id="a" width="437" height="219" x="0" y="129" maskUnits="userSpaceOnUse" style="mask-type:alpha"><path fill="#EEE" stroke="#000" stroke-width="2" d="M1.5 130h434v217H1.5V130Z"/></mask><g mask="url(#a)"><path fill="#EEE" d="M29.172 230.215v112.979c0 19.777 34.86 35.804 77.863 35.804h223.601c43.004 0 77.864-16.027 77.864-35.804V230.215"/><path stroke="#202124" stroke-miterlimit="10" stroke-width="1.5" d="M29.172 230.215v112.979c0 19.777 34.86 35.804 77.863 35.804h223.601c43.004 0 77.864-16.027 77.864-35.804V230.215"/><path stroke="#202124" stroke-miterlimit="10" stroke-width="1.5" d="M29.5 307c0 13.257 34.83 24 77.796 24h223.408c42.966 0 77.796-10.743 77.796-24M29.5 266c0 14.914 34.83 27 77.796 27h223.408c42.966 0 77.796-12.086 77.796-27"/><path fill="#EEE" stroke="#202124" stroke-miterlimit="10" stroke-width="1.5" d="M330.636 207.773H107.035c-43.003 0-77.863 10.108-77.863 22.569 0 12.47 34.86 22.568 77.863 22.568h223.601c43.004 0 77.864-10.107 77.864-22.568 0-12.47-34.86-22.569-77.864-22.569Z"/><path stroke="#202124" stroke-miterlimit="10" stroke-width="1.5" d="M49.414 245.523v119.802M36.938 239.408v119.793M387.234 245.807V365.6M399.711 240.689v119.802M80.469 251.913v125.421M126.492 252.913V379M173.117 252.913V379M219.75 252.913V379M266.383 252.913V379M313.023 252.913V379M359.664 251.913v123.524"/></g><path fill="url(#b)" stroke="#202124" stroke-linejoin="round" stroke-miterlimit="10" stroke-width="1.5" d="m324.034 80.724-22.841-33.346c-26.126-1.74-49.013 26.841-75.184 26.037-11.419-.349-20.826 6.83-24.544 17.41-14.053 39.949-57.979 59.214-71.486 99.362l25.266 37.006 72.006-21.51 54.68 30.406 46.436-138.261c1.77-5.232 1.353-9.532-4.329-17.104h-.004Z"/><path stroke="#202124" stroke-linejoin="round" stroke-miterlimit="10" stroke-width="1.5" d="m316.469 80.436-46.436 138.261-54.68-30.406-72.006 21.51-13.368-19.614c13.265-39.458 45.782-77.491 59.593-116.753 3.723-10.58 13.125-17.759 24.544-17.41 26.171.804 60.951-10.382 87.077-8.646l11.481 16.76c5.692 8.313 5.744 10.528 3.795 16.298Z"/><path stroke="#202124" stroke-linejoin="round" stroke-miterlimit="10" stroke-width="1.5" d="m282.103 236.379-54.594-30.409-25.521-37.299 54.68 30.406 25.435 37.302Z"/><path fill="#EEE" stroke="#202124" stroke-linejoin="round" stroke-miterlimit="10" stroke-width="1.5" d="m303.098 60.823-46.436 138.261-54.68-30.406-72.001 21.505c15.4-45.447 30.297-91.099 46.216-136.368 3.722-10.579 13.129-17.758 24.548-17.409 26.171.804 52.417 3.488 78.548 5.228 5.962.396 14.139-.36 19.321 3.304 5.182 3.665 6.438 10.115 4.489 15.885h-.005Z"/><path stroke="#202124" stroke-linejoin="round" stroke-miterlimit="10" stroke-width="1.5" d="m201.988 168.671 25.271 37.006M256.849 199.094l25.266 37.006M272.422 150.581l25.266 37.006M291.693 96.772l25.266 37.011M229.818 184.111l25.266 37.006M165.781 179.706l25.271 37.011"/><path fill="#EEE" stroke="#202124" stroke-miterlimit="10" stroke-width="1.5" d="M218.844 68.062 87.259 36.119l18.569 41.908L38.9 91.214l4.664 23.682 66.929-13.187-1.287 45.821 109.638-79.468Z"/><path fill="#202124" d="m218.852 68.067-76.069 84.88 12.309-38.887 63.76-45.993Z"/><defs><linearGradient id="b" x1="318.233" x2="171.272" y1="94.392" y2="222.434" gradientUnits="userSpaceOnUse"><stop stop-color="#4285F4"/><stop offset=".04" stop-color="#4E81F0"/><stop offset=".11" stop-color="#6E78E8"/><stop offset=".2" stop-color="#A26ADA"/><stop offset=".21" stop-color="#A769D9"/><stop offset=".31" stop-color="#FD2B25"/><stop offset=".5" stop-color="#FF5C10"/><stop offset=".69" stop-color="#FFB703"/><stop offset=".76" stop-color="#FFC600"/><stop offset=".79" stop-color="#FAC501"/><stop offset=".82" stop-color="#ECC405"/><stop offset=".85" stop-color="#D6C10B"/><stop offset=".88" stop-color="#B6BE14"/><stop offset=".91" stop-color="#8EB91F"/><stop offset=".95" stop-color="#5CB42D"/><stop offset=".98" stop-color="#23AD3D"/><stop offset="1" stop-color="#00AA47"/></linearGradient></defs></svg>