<svg xmlns="http://www.w3.org/2000/svg" width="94" height="94" fill="none"><g clip-path="url(#a)"><rect width="94" height="94" fill="#EEE" rx="10"/><path fill="#202124" d="M142.103 64.06h-89.13a7.708 7.708 0 0 0-7.43 5.646c-.18.315-.286.68-.286 1.07v5.527c0 4.25 3.456 7.697 7.716 7.697h89.13c4.26 0 7.716-3.447 7.716-7.697v-5.526c0-.39-.105-.756-.287-1.07a7.703 7.703 0 0 0-7.429-5.647ZM30.968 34.46h9.747c4.26 0 7.715-3.447 7.715-7.697v-4.55c0-4.25-3.455-7.697-7.715-7.697h-9.747c-4.26 0-7.716 3.447-7.716 7.697v4.55c0 4.25 3.456 7.697 7.716 7.697ZM58.76 26.763c0 4.25 3.456 7.697 7.717 7.697h83.835c4.261 0 7.716-3.447 7.716-7.697v-4.55c0-4.25-3.455-7.697-7.716-7.697H66.477c-4.26 0-7.716 3.447-7.716 7.697v4.55ZM64.75 51.535V48.11c0-.17-.01-.337-.032-.5a7.17 7.17 0 0 0 .033-.625c0-4.25-3.456-7.697-7.716-7.697h-36.85c-4.261 0-7.717 3.447-7.717 7.697 0 .21.015.42.033.626-.018.162-.033.329-.033.499v3.425c0 4.25 3.456 7.697 7.716 7.697h36.85c4.261 0 7.717-3.447 7.717-7.697ZM129.877 46.985c0-.109-.007-.218-.018-.322a7.699 7.699 0 0 0-7.698-7.371H82.798a7.699 7.699 0 0 0-7.698 7.37c-.011.105-.018.214-.018.323v4.55c0 4.25 3.455 7.696 7.716 7.696h39.363c4.26 0 7.716-3.447 7.716-7.696v-4.55Z"/><path fill="#EEE" stroke="#000" stroke-linejoin="round" stroke-width="1.2" d="M44.96 65.086h100.207c1.2 0 2.176.973 2.176 2.17v5.527c0 4.246-3.456 7.697-7.716 7.697h-89.13c-4.257 0-7.716-3.447-7.716-7.697v-5.527c0-1.197.976-2.17 2.176-2.17h.003Z"/><path fill="#EEE" stroke="#000" stroke-linejoin="round" stroke-width="1.2" d="M139.631 60.54H50.506c-4.262 0-7.716 3.445-7.716 7.694 0 4.25 3.454 7.695 7.716 7.695h89.125c4.262 0 7.716-3.445 7.716-7.695s-3.454-7.694-7.716-7.694Z"/><path fill="#EEE" stroke="#202124" stroke-miterlimit="10" stroke-width="1.2" d="M20.78 18.697v4.55c0 4.25 3.456 7.696 7.716 7.696h9.747c4.26 0 7.716-3.447 7.716-7.697v-4.55H20.78Z"/><path fill="#EEE" stroke="#202124" stroke-miterlimit="10" stroke-width="1.2" d="M38.24 11h-9.744c-4.261 0-7.716 3.445-7.716 7.695s3.455 7.695 7.716 7.695h9.743c4.262 0 7.716-3.445 7.716-7.695S42.501 11 38.24 11ZM56.284 18.697v4.55c0 4.25 3.456 7.696 7.716 7.696h83.836c4.26 0 7.716-3.447 7.716-7.697v-4.55H56.284Z"/><path fill="#EEE" stroke="#202124" stroke-miterlimit="10" stroke-width="1.2" d="M147.832 11H64c-4.261 0-7.716 3.445-7.716 7.695S59.74 26.39 64 26.39h83.832c4.262 0 7.716-3.445 7.716-7.695S152.094 11 147.832 11Z"/><path fill="url(#b)" stroke="#202124" stroke-miterlimit="10" stroke-width="1.2" d="M14.282 40.318h43.715a4.278 4.278 0 0 1 4.282 4.271v3.425c0 4.246-3.456 7.697-7.716 7.697H17.716c-4.257 0-7.716-3.447-7.716-7.697V44.59a4.278 4.278 0 0 1 4.282-4.271Z"/><path fill="url(#c)" stroke="#202124" stroke-miterlimit="10" stroke-width="1.2" d="M75.764 40.318h48.486a3.15 3.15 0 0 1 3.151 3.143v4.55c0 4.246-3.456 7.696-7.716 7.696H80.321c-4.256 0-7.715-3.447-7.715-7.696v-4.55a3.149 3.149 0 0 1 3.15-3.143h.008Z"/><path fill="url(#d)" stroke="#202124" stroke-miterlimit="10" stroke-width="1.2" d="M54.563 35.768H17.716c-4.261 0-7.716 3.445-7.716 7.695s3.455 7.694 7.716 7.694h36.847c4.261 0 7.716-3.445 7.716-7.694 0-4.25-3.455-7.695-7.716-7.695Z"/><path fill="url(#e)" stroke="#202124" stroke-miterlimit="10" stroke-width="1.2" d="M119.688 35.768h-39.36c-4.26 0-7.715 3.445-7.715 7.695s3.454 7.694 7.716 7.694h39.359c4.262 0 7.717-3.445 7.717-7.694 0-4.25-3.455-7.695-7.717-7.695Z"/></g><defs><linearGradient id="b" x1="19.064" x2="163.249" y1="48.033" y2="48.033" gradientUnits="userSpaceOnUse"><stop stop-color="#34A853"/><stop offset=".093" stop-color="#34A853"/><stop offset=".289" stop-color="#4285F4"/><stop offset=".369" stop-color="#4285F4"/><stop offset=".515" stop-color="#9F6CD4"/><stop offset=".647" stop-color="#EA4335"/><stop offset=".722" stop-color="#EA4335"/><stop offset=".82" stop-color="#F46831"/><stop offset=".905" stop-color="#FFCB32"/><stop offset="1" stop-color="#FFCB32"/></linearGradient><linearGradient id="c" x1="18.885" x2="163.583" y1="48.032" y2="48.032" gradientUnits="userSpaceOnUse"><stop stop-color="#34A853"/><stop offset=".093" stop-color="#34A853"/><stop offset=".289" stop-color="#4285F4"/><stop offset=".369" stop-color="#4285F4"/><stop offset=".515" stop-color="#9F6CD4"/><stop offset=".647" stop-color="#EA4335"/><stop offset=".722" stop-color="#EA4335"/><stop offset=".82" stop-color="#F46831"/><stop offset=".905" stop-color="#FFCB32"/><stop offset="1" stop-color="#FFCB32"/></linearGradient><linearGradient id="d" x1="19.064" x2="163.249" y1="43.482" y2="43.482" gradientUnits="userSpaceOnUse"><stop stop-color="#34A853"/><stop offset=".093" stop-color="#34A853"/><stop offset=".289" stop-color="#4285F4"/><stop offset=".369" stop-color="#4285F4"/><stop offset=".515" stop-color="#9F6CD4"/><stop offset=".647" stop-color="#EA4335"/><stop offset=".722" stop-color="#EA4335"/><stop offset=".82" stop-color="#F46831"/><stop offset=".905" stop-color="#FFCB32"/><stop offset="1" stop-color="#FFCB32"/></linearGradient><linearGradient id="e" x1="18.896" x2="163.585" y1="43.482" y2="43.482" gradientUnits="userSpaceOnUse"><stop stop-color="#34A853"/><stop offset=".093" stop-color="#34A853"/><stop offset=".289" stop-color="#4285F4"/><stop offset=".369" stop-color="#4285F4"/><stop offset=".515" stop-color="#9F6CD4"/><stop offset=".647" stop-color="#EA4335"/><stop offset=".722" stop-color="#EA4335"/><stop offset=".82" stop-color="#F46831"/><stop offset=".905" stop-color="#FFCB32"/><stop offset="1" stop-color="#FFCB32"/></linearGradient><clipPath id="a"><rect width="94" height="94" fill="#fff" rx="10"/></clipPath></defs></svg>