<svg width="90" height="90" fill="none" xmlns="http://www.w3.org/2000/svg"><rect x="1" y="1" width="88" height="88" rx="7" fill="#EEE" stroke="#000" stroke-width="2"/><path d="M28.448 16.035s-4.152-.026-5.916.511c-1.764.537-3.682 2.455-3.682 6.213 0 3.757-.23 37.37-.23 41.203 0 2.983.418 4.62 1.795 5.85a5.675 5.675 0 0 0 2.306 1.226c1.02.279 2.684.697 3.646.747 1.457.076 1.047-51.095 1.047-51.095l1.034-4.655Z" fill="#202124" stroke="#202124" stroke-width="1.5" stroke-miterlimit="10"/><path d="M72.287 37.736V62.51c0 5.293-1.84 8.222-6.059 8.369-4.218.144-29.45 1.829-33.899 1.984-4.448.156-8.052.156-7.823-7.745.23-7.9.384-43.18.384-43.18s-.998-7.007 6.825-6.38c7.822.627 27.457 1.932 32.366 2.315 4.91.383 8.284 1.074 8.284 7.056 0 5.983-.076 12.808-.076 12.808h-.002Z" fill="url(#a)" stroke="#202124" stroke-width="1.5" stroke-miterlimit="10"/><path d="m24.839 30 47.526 2.73" stroke="#202124" stroke-width="1.5" stroke-miterlimit="10"/><path d="M64.138 26.896a2.069 2.069 0 1 0 0-4.138 2.069 2.069 0 0 0 0 4.139ZM55.862 26.896a2.069 2.069 0 1 0 0-4.137 2.069 2.069 0 0 0 0 4.137Z" stroke="#202124" stroke-width="1.5" stroke-linejoin="round"/><defs><linearGradient id="a" x1="24.496" y1="44.208" x2="72.365" y2="44.208" gradientUnits="userSpaceOnUse"><stop stop-color="#FFCB32"/><stop offset=".24" stop-color="#FFCB32"/><stop offset=".76" stop-color="#34A853"/><stop offset="1" stop-color="#34A853"/></linearGradient></defs></svg>