<svg xmlns="http://www.w3.org/2000/svg" width="274" height="197" fill="none"><mask id="a" width="274" height="197" x="0" y="0" maskUnits="userSpaceOnUse" style="mask-type:alpha"><path fill="#D9D9D9" d="M.5 0h273v186.973c0 5.538-4.489 10.027-10.027 10.027H.5V0Z"/></mask><g mask="url(#a)"><circle cx="169.876" cy="97.376" r="81.376" fill="#EEE"/><path fill="url(#b)" d="m169.912 16.006.165 81.375h81.248c0-44.104-36.034-81.375-81.413-81.375Z"/><path fill="url(#c)" d="M169.915 179c-44.964 0-81.413-36.451-81.413-81.413h81.413V179Z"/><path stroke="#000" stroke-linejoin="round" stroke-width="1.5" d="M88.54 97.585H251.29M169.915 178.998c44.964 0 81.414-36.45 81.414-81.413 0-44.963-36.45-81.413-81.414-81.413-44.963 0-81.413 36.45-81.413 81.413 0 44.963 36.45 81.413 81.413 81.413Z"/><path stroke="#000" stroke-linejoin="round" stroke-width="1.5" d="M170.002 179c30.1 0 54.5-36.489 54.5-81.5s-24.4-81.5-54.5-81.5c-30.099 0-54.5 36.489-54.5 81.5s24.401 81.5 54.5 81.5Z"/><path stroke="#000" stroke-linejoin="round" stroke-width="1.5" d="M170.002 179c15.188 0 27.5-36.489 27.5-81.5S185.19 16 170.002 16s-27.5 36.489-27.5 81.5 12.312 81.5 27.5 81.5ZM169.913 16.172V179"/><path stroke="#000" stroke-linejoin="round" stroke-width="1.5" d="M202.046 22.763c-9.456 5.463-20.432 8.589-32.139 8.589-11.707 0-22.682-3.126-32.139-8.589M106.461 148.601c19.057-9.677 40.618-15.13 63.453-15.13s44.396 5.453 63.453 15.13M234.857 48.48c-19.42 10.155-41.511 15.899-64.943 15.899-23.433 0-45.524-5.743-64.944-15.899M142.01 174.095c8.439-4.068 17.904-6.348 27.9-6.348 9.996 0 19.456 2.278 27.895 6.344"/><mask id="d" width="41" height="40" x="192" y="39" maskUnits="userSpaceOnUse" style="mask-type:luminance"><path fill="#fff" d="M232.637 39.324h-39.728v39.651h39.728V39.324Z"/></mask><g mask="url(#d)"><path fill="#202124" d="M222.047 75.891c0-7.675-2.675-14.184-8.026-19.524-5.35-5.34-11.87-8.01-19.562-8.01 7.69 0 14.212-2.67 19.562-8.01 5.351-5.34 8.026-11.848 8.026-19.525 0 7.675 2.676 14.184 8.026 19.524 5.351 5.34 11.87 8.01 19.562 8.01-7.69 0-14.211 2.671-19.562 8.011-5.35 5.34-8.026 11.847-8.026 19.524Z"/></g><path fill="#EEE" stroke="#231F20" stroke-miterlimit="10" stroke-width="1.5" d="M226.159 71.07c0-7.676-2.675-14.185-8.026-19.525-5.351-5.34-11.87-8.01-19.562-8.01 7.69 0 14.211-2.67 19.562-8.01 5.351-5.341 8.026-11.848 8.026-19.525 0 7.675 2.675 14.184 8.026 19.524 5.35 5.34 11.87 8.01 19.562 8.01-7.69 0-14.212 2.67-19.562 8.011-5.351 5.34-8.026 11.847-8.026 19.524Z"/></g><defs><linearGradient id="b" x1="169.912" x2="218.312" y1="56.693" y2="76.983" gradientUnits="userSpaceOnUse"><stop stop-color="#1F86FB"/><stop offset=".27" stop-color="#1F86FB"/><stop offset=".75" stop-color="#00AA47"/><stop offset="1" stop-color="#00AA47"/></linearGradient><linearGradient id="c" x1="88.376" x2="169.789" y1="138.294" y2="138.294" gradientUnits="userSpaceOnUse"><stop stop-color="#FFCB32"/><stop offset=".18" stop-color="#FFCB32"/><stop offset=".53" stop-color="#F46831"/><stop offset=".79" stop-color="#EA4335"/><stop offset="1" stop-color="#EA4335"/></linearGradient></defs></svg>