<svg xmlns="http://www.w3.org/2000/svg" width="94" height="94" fill="none"><g clip-path="url(#a)"><rect width="94" height="94" fill="#EEE" rx="10"/><path fill="url(#b)" stroke="#202124" stroke-miterlimit="10" stroke-width="1.2" d="m58.523-38.998 9.565-9.81s.969-1.166 3.26-1.166h161.375c2.942 0 5.329 2.462 5.329 5.497v76.875s0 2.22-1.411 3.702l-9.616 9.87L58.523-38.997Z"/><path fill="#EEE" stroke="#202124" stroke-miterlimit="10" stroke-width="1.2" d="m49.995-30.203 9.564-9.81s.969-1.166 3.26-1.166h161.376c2.942 0 5.329 2.462 5.329 5.497v76.875s0 2.22-1.412 3.703l-9.616 9.87L49.995-30.203Z"/><path fill="#EEE" stroke="#202124" stroke-miterlimit="10" stroke-width="1.2" d="m41.71-21.663 9.565-9.81s.97-1.165 3.26-1.165H215.91c2.942 0 5.329 2.462 5.329 5.496v76.875s0 2.22-1.412 3.703l-9.615 9.87L41.711-21.663Z"/><path fill="#EEE" stroke="#202124" stroke-miterlimit="10" stroke-width="1.2" d="m33.494-13.185 9.564-9.811s.969-1.165 3.26-1.165h161.376c2.942 0 5.329 2.462 5.329 5.496V58.21s0 2.22-1.412 3.703l-9.616 9.87L33.494-13.186Z"/><path fill="#EEE" stroke="#202124" stroke-linejoin="round" stroke-width="1.2" d="M198.523-14.595H37.051c-2.912 0-5.273 2.532-5.273 5.654v80.017c0 3.123 2.361 5.654 5.273 5.654h161.472c2.912 0 5.273-2.531 5.273-5.654V-8.941c0-3.122-2.361-5.654-5.273-5.654Z"/><rect width="115.51" height="8.216" x="77.164" y="9.923" fill="url(#c)" stroke="#202124" stroke-width="1.2" rx="4.108"/><rect width="115.51" height="8.216" x="77.164" y="26.355" fill="url(#d)" stroke="#202124" stroke-width="1.2" rx="4.108"/><rect width="149.341" height="8.216" x="43.331" y="42.787" fill="url(#e)" stroke="#202124" stroke-width="1.2" rx="4.108"/><rect width="68.993" height="8.373" x="43.328" y="59.028" fill="url(#f)" stroke="#202124" stroke-width="1.2" rx="4.186"/><path fill="#202124" fill-rule="evenodd" d="M42.655 11.561a3.88 3.88 0 0 1 3.379-2.001c.662 0 1.331.173 1.946.537l13.69 8.109c1.292.764 1.995 2.171 1.949 3.6.044 1.426-.659 2.83-1.949 3.594l-13.69 8.108a3.802 3.802 0 0 1-1.946.538 3.88 3.88 0 0 1-3.38-2.001c-1.076-1.914-.438-4.36 1.428-5.464l8.069-4.778-8.069-4.779c-1.866-1.104-2.504-3.55-1.427-5.463Z" clip-rule="evenodd"/><path fill="#202124" d="m42.655 11.561.523.294-.523-.294Zm5.325-1.464-.306.517.306-.517Zm13.69 8.109-.306.516.306-.516Zm1.949 3.6-.6-.02v.038l.6-.018ZM61.67 25.4l-.306-.516.306.516Zm-13.69 8.108-.306-.516.306.516Zm-5.325-1.463.523-.295-.523.295Zm1.427-5.464.306.517-.306-.517Zm8.069-4.778.305.516.872-.516-.872-.517-.306.517Zm-8.069-4.779.306-.516-.306.516Zm1.952-8.064a4.48 4.48 0 0 0-3.902 2.307l1.046.588a3.28 3.28 0 0 1 2.856-1.695v-1.2Zm2.252.621a4.402 4.402 0 0 0-2.252-.621v1.2c.556 0 1.12.145 1.64.454l.612-1.033Zm13.69 8.108-13.69-8.108-.611 1.033 13.69 8.108.611-1.033Zm2.242 4.136c.054-1.633-.75-3.253-2.242-4.136l-.611 1.033c1.091.646 1.694 1.84 1.654 3.064l1.2.04Zm-1.199 0c.038 1.221-.564 2.413-1.655 3.059l.612 1.032c1.49-.881 2.293-2.498 2.243-4.129l-1.2.037Zm-1.655 3.059-13.69 8.108.612 1.032 13.69-8.108-.612-1.032Zm-13.69 8.108a3.202 3.202 0 0 1-1.64.454v1.2c.767 0 1.543-.201 2.252-.622l-.612-1.032Zm-1.64.454a3.28 3.28 0 0 1-2.856-1.696l-1.046.589a4.48 4.48 0 0 0 3.902 2.307v-1.2Zm-2.856-1.696c-.92-1.635-.37-3.718 1.21-4.652l-.611-1.033c-2.153 1.274-2.879 4.082-1.645 6.274l1.046-.589Zm1.21-4.652 8.068-4.779-.611-1.032-8.069 4.778.612 1.033Zm-.611-9.558 8.068 4.779.611-1.032-8.068-4.78-.611 1.033Zm-1.645-6.273c-1.234 2.191-.508 5 1.645 6.274l.61-1.033c-1.578-.935-2.13-3.017-1.21-4.653l-1.045-.588Z"/><path fill="#202124" stroke="#202124" stroke-width="1.2" d="m59.158 45.958-7.743 30.441h-8.438l16.181-30.441Z"/><path fill="#EEE" stroke="#202124" stroke-miterlimit="10" stroke-width="1.2" d="m59.158 45.958-44.366 9.347L26.378 65.66 8 79.599l4.784 6.704 18.374-13.937 6.135 14.486 21.865-40.894Z"/></g><defs><linearGradient id="b" x1="58.523" x2="238.052" y1="-1.883" y2="-1.883" gradientUnits="userSpaceOnUse"><stop stop-color="#34A853"/><stop offset=".093" stop-color="#34A853"/><stop offset=".289" stop-color="#4285F4"/><stop offset=".369" stop-color="#4285F4"/><stop offset=".515" stop-color="#9F6CD4"/><stop offset=".647" stop-color="#EA4335"/><stop offset=".722" stop-color="#EA4335"/><stop offset=".82" stop-color="#F46831"/><stop offset=".905" stop-color="#FFCB32"/><stop offset="1" stop-color="#FFCB32"/></linearGradient><linearGradient id="c" x1="77.164" x2="188.698" y1="13.867" y2="13.867" gradientUnits="userSpaceOnUse"><stop stop-color="#4285F4"/><stop offset=".101" stop-color="#4285F4"/><stop offset=".238" stop-color="#9F6CD4"/><stop offset=".378" stop-color="#EA4335"/><stop offset=".441" stop-color="#EA4335"/><stop offset=".571" stop-color="#F46831"/><stop offset=".683" stop-color="#FFCB32"/><stop offset=".763" stop-color="#FFCB32"/><stop offset=".912" stop-color="#34A853"/><stop offset="1" stop-color="#34A853"/></linearGradient><linearGradient id="d" x1="77.164" x2="178.654" y1="30.299" y2="30.299" gradientUnits="userSpaceOnUse"><stop stop-color="#4285F4"/><stop offset=".101" stop-color="#4285F4"/><stop offset=".238" stop-color="#9F6CD4"/><stop offset=".378" stop-color="#EA4335"/><stop offset=".441" stop-color="#EA4335"/><stop offset=".571" stop-color="#F46831"/><stop offset=".683" stop-color="#FFCB32"/><stop offset=".763" stop-color="#FFCB32"/><stop offset=".912" stop-color="#34A853"/><stop offset="1" stop-color="#34A853"/></linearGradient><linearGradient id="e" x1="48.561" x2="178.241" y1="46.731" y2="46.731" gradientUnits="userSpaceOnUse"><stop stop-color="#4285F4"/><stop offset=".101" stop-color="#4285F4"/><stop offset=".238" stop-color="#9F6CD4"/><stop offset=".378" stop-color="#EA4335"/><stop offset=".441" stop-color="#EA4335"/><stop offset=".571" stop-color="#F46831"/><stop offset=".683" stop-color="#FFCB32"/><stop offset=".763" stop-color="#FFCB32"/><stop offset=".912" stop-color="#34A853"/><stop offset="1" stop-color="#34A853"/></linearGradient><linearGradient id="f" x1="52.121" x2="144.641" y1="63.215" y2="63.215" gradientUnits="userSpaceOnUse"><stop stop-color="#4285F4"/><stop offset=".101" stop-color="#4285F4"/><stop offset=".238" stop-color="#9F6CD4"/><stop offset=".378" stop-color="#EA4335"/><stop offset=".441" stop-color="#EA4335"/><stop offset=".571" stop-color="#F46831"/><stop offset=".683" stop-color="#FFCB32"/><stop offset=".763" stop-color="#FFCB32"/><stop offset=".912" stop-color="#34A853"/><stop offset="1" stop-color="#34A853"/></linearGradient><clipPath id="a"><rect width="94" height="94" fill="#fff" rx="10"/></clipPath></defs></svg>