<svg xmlns="http://www.w3.org/2000/svg" width="316" height="170" fill="none"><g clip-path="url(#a)"><rect width="316" height="170" fill="#EEE" rx="12"/><mask id="b" width="71" height="67" x="259" y="113" maskUnits="userSpaceOnUse" style="mask-type:luminance"><path fill="#fff" d="M301.257 178.684a5.715 5.715 0 0 1-2.211.64c-2.108.179-4.087-.784-5.292-2.578l-33.019-49.061a6.097 6.097 0 0 1-.484-6.001c.904-1.972 2.707-3.252 4.821-3.429l57.821-4.88c2.108-.179 4.086.781 5.294 2.572a6.104 6.104 0 0 1 .482 6.007l-24.803 53.941c-.565 1.229-1.484 2.197-2.606 2.787l-.003.002Z"/></mask><g mask="url(#b)"><path fill="#EEE" stroke="#241F20" stroke-miterlimit="10" stroke-width="1.5" d="m233.726 2.696 153.26 74.542-82.446 179.305-152.941-74.39L233.726 2.696Z"/><path fill="#EEE" stroke="#241F20" stroke-miterlimit="10" stroke-width="1.5" d="M232.61 2.153 150.477 181.61c-.293.633-.028 1.395.591 1.694l152.942 74.39a1.216 1.216 0 0 0 1.643-.606l82.446-179.305c.293-.633.028-1.394-.59-1.69L234.257 1.545a1.186 1.186 0 0 0-.944-.047c-.31.113-.56.346-.699.653l-.004.002Z"/><path fill="#EEE" d="m336.035 52.458-82.407 179.213 82.407-179.213Z"/><path stroke="#241F20" stroke-miterlimit="10" stroke-width="1.5" d="m336.035 52.458-82.407 179.213"/><path fill="#EEE" d="m348.841 58.684-82.404 179.211 82.404-179.211Z"/><path stroke="#241F20" stroke-miterlimit="10" stroke-width="1.5" d="m348.841 58.684-82.404 179.211"/><path fill="#EEE" d="m361.644 64.906-82.407 179.213 82.407-179.213Z"/><path stroke="#241F20" stroke-miterlimit="10" stroke-width="1.5" d="m361.644 64.906-82.407 179.213"/><path fill="#EEE" d="M374.437 71.137 292.034 250.35l82.403-179.212Z"/><path stroke="#241F20" stroke-miterlimit="10" stroke-width="1.5" d="M374.437 71.137 292.034 250.35"/><path fill="#EEE" d="m156.978 168.988 153.548 74.686-153.548-74.686Z"/><path stroke="#241F20" stroke-miterlimit="10" stroke-width="1.5" d="m156.978 168.988 153.548 74.686"/><path fill="#EEE" d="m284.79 27.533-82.403 179.211 82.403-179.21Z"/><path stroke="#241F20" stroke-miterlimit="10" stroke-width="1.5" d="m284.79 27.533-82.403 179.211"/><path fill="#EEE" d="M297.595 33.759 215.192 212.97l82.403-179.211Z"/><path stroke="#241F20" stroke-miterlimit="10" stroke-width="1.5" d="M297.595 33.759 215.192 212.97"/><path fill="#EEE" d="m310.394 39.983-82.407 179.213 82.407-179.213Z"/><path stroke="#241F20" stroke-miterlimit="10" stroke-width="1.5" d="m310.394 39.983-82.407 179.213"/><path fill="#EEE" d="m323.199 46.208-82.407 179.214 82.407-179.214Z"/><path stroke="#241F20" stroke-miterlimit="10" stroke-width="1.5" d="m323.199 46.208-82.407 179.214"/><path fill="#EEE" d="m246.278 8.8-82.405 179.207L246.278 8.8Z"/><path stroke="#241F20" stroke-miterlimit="10" stroke-width="1.5" d="m246.278 8.8-82.405 179.207"/><path fill="#EEE" d="m259.112 15.046-82.403 179.211 82.403-179.211Z"/><path stroke="#241F20" stroke-miterlimit="10" stroke-width="1.5" d="m259.112 15.046-82.403 179.211"/><path fill="#EEE" d="M271.951 21.29 189.548 200.5l82.403-179.212Z"/><path stroke="#241F20" stroke-miterlimit="10" stroke-width="1.5" d="M271.951 21.29 189.548 200.5"/><path fill="#EEE" d="m162.973 155.951 153.548 74.685-153.548-74.685Z"/><path stroke="#241F20" stroke-miterlimit="10" stroke-width="1.5" d="m162.973 155.951 153.548 74.685"/><path fill="#EEE" d="m168.854 143.152 153.549 74.685-153.549-74.685Z"/><path stroke="#241F20" stroke-miterlimit="10" stroke-width="1.5" d="m168.854 143.152 153.549 74.685"/><path fill="#EEE" d="m174.745 130.353 153.549 74.685-153.549-74.685Z"/><path stroke="#241F20" stroke-miterlimit="10" stroke-width="1.5" d="m174.745 130.353 153.549 74.685"/><path fill="#EEE" d="m180.631 117.551 153.548 74.686-153.548-74.686Z"/><path stroke="#241F20" stroke-miterlimit="10" stroke-width="1.5" d="m180.631 117.551 153.548 74.686"/><path fill="#EEE" d="m186.514 104.756 153.548 74.686-153.548-74.686Z"/><path stroke="#241F20" stroke-miterlimit="10" stroke-width="1.5" d="m186.514 104.756 153.548 74.686"/><path fill="#EEE" d="m192.399 91.955 153.549 74.685-153.549-74.685Z"/><path stroke="#241F20" stroke-miterlimit="10" stroke-width="1.5" d="m192.399 91.955 153.549 74.685"/><path fill="#EEE" d="m198.285 79.154 153.549 74.685-153.549-74.685Z"/><path stroke="#241F20" stroke-miterlimit="10" stroke-width="1.5" d="m198.285 79.154 153.549 74.685"/><path fill="#EEE" d="m204.172 66.356 153.549 74.686-153.549-74.686Z"/><path stroke="#241F20" stroke-miterlimit="10" stroke-width="1.5" d="m204.172 66.356 153.549 74.686"/><path fill="#EEE" d="m210.06 53.55 153.548 74.685L210.06 53.549Z"/><path stroke="#241F20" stroke-miterlimit="10" stroke-width="1.5" d="m210.06 53.55 153.548 74.685"/><path fill="#EEE" d="m215.949 40.756 153.549 74.686-153.549-74.686Z"/><path stroke="#241F20" stroke-miterlimit="10" stroke-width="1.5" d="m215.949 40.756 153.549 74.686"/><path fill="#EEE" d="m221.826 27.959 153.549 74.685-153.549-74.685Z"/><path stroke="#241F20" stroke-miterlimit="10" stroke-width="1.5" d="m221.826 27.959 153.549 74.685"/><path fill="#EEE" d="M227.712 15.158 381.265 89.84 227.712 15.158Z"/><path stroke="#241F20" stroke-miterlimit="10" stroke-width="1.5" d="M227.712 15.158 381.265 89.84"/></g><path stroke="#241F20" stroke-miterlimit="10" stroke-width="1.5" d="M301.257 178.684a5.715 5.715 0 0 1-2.211.64c-2.108.179-4.087-.784-5.292-2.578l-33.019-49.061a6.097 6.097 0 0 1-.484-6.001c.904-1.972 2.707-3.252 4.821-3.429l57.821-4.88c2.108-.179 4.086.781 5.294 2.572a6.104 6.104 0 0 1 .482 6.007l-24.803 53.941c-.565 1.229-1.484 2.197-2.606 2.787l-.003.002Z"/><path fill="url(#c)" stroke="#202124" stroke-miterlimit="10" stroke-width="1.5" d="M260.359 130.266c4.132-2.625 7.514-6.586 9.467-11.585 4.702-12.052-.813-25.986-12.367-31.223-4.815-2.18-9.936-2.578-14.68-1.478-4.053.94-8.26-.84-10.498-4.44-2.62-4.215-6.525-7.637-11.441-9.573-11.793-4.642-25.245 1.272-30.149 13.237a24.78 24.78 0 0 0-1.198 15.081c1.031 4.388-.784 8.918-4.518 11.292-4.132 2.625-7.514 6.586-9.463 11.586-4.702 12.051.809 25.986 12.363 31.223a22.861 22.861 0 0 0 14.681 1.478c4.052-.94 8.26.841 10.497 4.44 2.62 4.215 6.525 7.641 11.441 9.572 11.793 4.638 25.245-1.271 30.149-13.24a24.78 24.78 0 0 0 1.198-15.082c-1.027-4.387.784-8.917 4.514-11.292l.004.004Z"/><path fill="#202124" d="M209.855 156.924s2.351-1.555 6.383-3.801c4.031-2.246 4.031-2.59 5.372-6.909 1.345-4.319 3.864-15.715 3.864-15.715l-32.24 25.732s3.357.862 7.556-.173c4.199-1.034 7.724-.862 9.069.862l-.004.004Z"/><path fill="url(#d)" stroke="#202124" stroke-miterlimit="10" stroke-width="1.5" d="M129.552 73.937 93 82.725c-2.761.664-4.79 3.082-5.033 5.987L84.8 127.18c-.239 2.905 1.366 5.638 3.981 6.771l34.595 14.987c2.611 1.133 5.636.405 7.489-1.802l24.549-29.205c1.853-2.207 2.117-5.388.65-7.884l-19.42-33.037c-1.467-2.495-4.329-3.737-7.091-3.073Z"/><path fill="#F2F2F2" stroke="#202124" stroke-miterlimit="10" stroke-width="1.5" d="M226.878 118.53 153.842-5.714c-1.89-3.215-5.96-4.25-9.09-2.302L78.797 32.995c-1.919 1.194-3.034 3.229-3.176 5.366l-.004.082v.065l-.688 11.232a12.56 12.56 0 0 0 1.668 7.616l67.744 115.24c3.282 5.582 10.339 7.37 15.766 3.996l57.204-35.572c4.484-3.211 5.804-3.892 7.786-9.318l2.351-7.345c.65-1.862.512-4-.561-5.827h-.009Zm-10.036-1.737L152.76 156.64a1.268 1.268 0 0 1-1.768-.448L86.157 45.9a1.347 1.347 0 0 1 .435-1.82l64.081-39.846c.608-.38 1.4-.177 1.769.448l64.831 110.288a1.345 1.345 0 0 1-.436 1.818l.005.005Z"/><path fill="#F2F2F2" stroke="#202124" stroke-miterlimit="10" stroke-width="1.5" d="M226.878 118.53 153.842-5.714c-1.89-3.215-5.96-4.25-9.09-2.302L78.797 32.995c-3.126 1.944-4.132 6.13-2.237 9.345l73.036 124.243c1.89 3.216 5.96 4.25 9.086 2.302l65.959-41.011c3.126-1.944 4.132-6.129 2.237-9.349v.005Zm-10.036-1.737L152.76 156.64a1.268 1.268 0 0 1-1.768-.448L86.157 45.9a1.347 1.347 0 0 1 .435-1.82l64.081-39.846c.608-.38 1.4-.177 1.769.448l64.831 110.288a1.345 1.345 0 0 1-.436 1.818l.005.005Z"/><path fill="url(#e)" stroke="#202124" stroke-miterlimit="10" stroke-width="1.5" d="M165.199 90.091c-5.486-21.701-22.723-38.433-44.427-42.437 21.704-4.008 38.941-20.736 44.427-42.438 5.494 21.702 22.735 38.434 44.435 42.438-21.7 4.008-38.941 20.736-44.435 42.437Z"/><path fill="#202124" d="m105.749 79.553 39.963 50.088-6.043 7.25-33.92-57.338ZM184.837 59.692s2.854-3.28 5.205-3.801l4.199 6.909s-4.534 1.556-5.205 4.146l-4.199-7.254ZM193.503 80.256l21.62 37.42-4.71 2.862-20.141-34.899 3.231-5.383Z"/><path fill="#F2F2F2" stroke="#000" stroke-miterlimit="10" stroke-width="1.5" d="M-6.518-9.97-21.725 6.727c-2.384 2.617-3.659 6.103-3.549 9.69l.729 22.86c.116 3.588 1.606 6.977 4.156 9.43l16.233 15.639c2.545 2.452 5.934 3.764 9.422 3.65l22.227-.75c3.489-.118 6.784-1.651 9.168-4.274l15.206-16.695c2.385-2.617 3.66-6.103 3.55-9.69l-.729-22.86c-.116-3.588-1.606-6.977-4.156-9.43l-16.233-15.64c-2.545-2.451-5.934-3.763-9.422-3.65l-22.227.75c-3.489.12-6.784 1.652-9.168 4.275Z"/><mask id="f" width="82" height="84" x="-26" y="-15" maskUnits="userSpaceOnUse" style="mask-type:luminance"><path fill="#fff" d="M-6.518-9.97-21.725 6.727c-2.384 2.617-3.659 6.103-3.549 9.69l.729 22.86c.116 3.588 1.606 6.977 4.156 9.43l16.233 15.639c2.545 2.452 5.934 3.764 9.422 3.65l22.227-.75c3.489-.118 6.784-1.651 9.168-4.274l15.206-16.695c2.385-2.617 3.66-6.103 3.55-9.69l-.729-22.86c-.116-3.588-1.606-6.977-4.156-9.43l-16.233-15.64c-2.545-2.451-5.934-3.763-9.422-3.65l-22.227.75c-3.489.12-6.784 1.652-9.168 4.275Z"/></mask><g stroke="#000" stroke-miterlimit="10" stroke-width="1.5" mask="url(#f)"><path d="M180.633 10.507-19.804 73.03M185.099 25.652-15.338 88.17M189.564 40.792l-200.437 62.524M194.035 55.938-6.407 118.462M-41.253-52.75 12.32 128.908M162.756-50.12-37.681 12.402M167.221-34.975-33.216 27.548M171.686-19.83-28.75 42.694M176.157-4.684-24.286 57.84M-26.67-57.302 26.898 124.36M-12.358-61.764l53.573 181.656M1.96-66.231l53.566 181.655M16.272-70.693l53.572 181.656M30.59-75.161l53.567 181.656M44.902-79.629l53.572 181.662"/></g></g><rect width="314" height="168" x="1" y="1" stroke="#202124" stroke-width="2" rx="11"/><defs><linearGradient id="c" x1="173.832" x2="271.502" y1="120.922" y2="120.922" gradientUnits="userSpaceOnUse"><stop stop-color="#00AC37"/><stop offset=".27" stop-color="#00AC37"/><stop offset=".43" stop-color="#00A26C"/><stop offset=".63" stop-color="#0096AB"/><stop offset=".79" stop-color="#008ED8"/><stop offset=".92" stop-color="#0088F4"/><stop offset="1" stop-color="#0087FF"/></linearGradient><linearGradient id="d" x1="83.483" x2="221.644" y1="131.654" y2="55.159" gradientUnits="userSpaceOnUse"><stop stop-color="#FFCB32"/><stop offset=".18" stop-color="#FFCB32"/><stop offset=".53" stop-color="#F46831"/><stop offset=".79" stop-color="#EA4335"/><stop offset="1" stop-color="#EA4335"/></linearGradient><linearGradient id="e" x1="68.371" x2="206.532" y1="104.358" y2="27.863" gradientUnits="userSpaceOnUse"><stop stop-color="#FFCB32"/><stop offset=".18" stop-color="#FFCB32"/><stop offset=".53" stop-color="#F46831"/><stop offset=".79" stop-color="#EA4335"/><stop offset="1" stop-color="#EA4335"/></linearGradient><clipPath id="a"><rect width="316" height="170" fill="#fff" rx="12"/></clipPath></defs></svg>