<svg xmlns="http://www.w3.org/2000/svg" width="73" height="240" fill="none"><path fill="#EEE" stroke="#202124" stroke-miterlimit="10" stroke-width="1.2" d="M53.632 120h-26.29c0 29.063 11.759 55.353 30.782 74.377l18.594-18.595C62.45 161.514 53.631 141.797 53.631 120Z"/><path fill="#EEE" stroke="#202124" stroke-miterlimit="10" stroke-width="1.2" d="M76.718 64.22 58.124 45.624C39.1 64.65 27.342 90.94 27.342 120.002h26.29c0-21.797 8.818-41.515 23.086-55.783ZM132.501 41.132v-26.29c-29.063 0-55.353 11.759-74.377 30.782L76.72 64.218C90.987 49.95 110.704 41.131 132.5 41.131Z"/><path fill="url(#a)" stroke="#202124" stroke-miterlimit="10" stroke-width="1.2" d="M92.258 217.155c-26.85-11.121-46.638-32.046-56.935-56.901L11.03 170.317c12.87 31.07 37.606 57.225 71.17 71.127l.029.013 10.054-24.293-.022-.009h-.002Z"/><path fill="url(#b)" stroke="#202124" stroke-miterlimit="10" stroke-width="1.2" d="M92.246 22.821 82.183-1.473c-31.07 12.871-57.224 37.607-71.127 71.17l24.288 10.06c11.12-26.85 32.047-46.64 56.902-56.936Z"/><path fill="#EEE" stroke="#202124" stroke-miterlimit="10" stroke-width="1.2" d="m35.347 79.757-24.29-10.06c-13.902 33.562-12.899 69.548-.029 100.618l24.294-10.063c-10.297-24.857-11.098-53.645.023-80.495h.002ZM132.501 198.866c-21.797 0-41.514-8.819-55.782-23.087l-18.594 18.594c19.023 19.024 45.313 30.783 74.376 30.783h.025l-.008-26.29h-.017Z"/><path fill="url(#c)" stroke="#202124" stroke-miterlimit="10" stroke-width="1.2" d="m95.322 82.822-18.59-18.59c-15.412 15.413-23.119 35.59-23.119 55.769H79.91c0-13.452 5.138-26.904 15.413-37.18Z"/><path fill="#EEE" stroke="#202124" stroke-miterlimit="10" stroke-width="1.2" d="M79.91 120H53.612c0 20.178 7.707 40.356 23.12 55.768l18.59-18.589C85.046 146.904 79.908 133.451 79.908 120Z"/><defs><linearGradient id="a" x1="53.866" x2="48.34" y1="214.384" y2="162.793" gradientUnits="userSpaceOnUse"><stop stop-color="#5382EB"/><stop offset=".25" stop-color="#5382EB"/><stop offset=".52" stop-color="#9F6CD4"/><stop offset=".82" stop-color="#EA4335"/><stop offset="1" stop-color="#EA4335"/></linearGradient><linearGradient id="b" x1="60.21" x2="15.418" y1="38.419" y2="59.065" gradientUnits="userSpaceOnUse"><stop stop-color="#FFCB32"/><stop offset=".18" stop-color="#FFCB32"/><stop offset=".53" stop-color="#F46831"/><stop offset=".79" stop-color="#EA4335"/><stop offset="1" stop-color="#EA4335"/></linearGradient><linearGradient id="c" x1="64.642" x2="82.957" y1="118.666" y2="72.436" gradientUnits="userSpaceOnUse"><stop stop-color="#4285F4"/><stop offset=".27" stop-color="#4285F4"/><stop offset=".75" stop-color="#34A853"/><stop offset="1" stop-color="#34A853"/></linearGradient></defs></svg>