<svg width="164" height="190" viewBox="0 0 164 190" fill="none" xmlns="http://www.w3.org/2000/svg">
<path d="M24.4355 95.3672C17.9269 95.3672 12.3935 93.0891 7.83513 88.5284C3.27681 83.9676 1 78.4311 1 71.9191C1 65.407 3.27681 59.8706 7.83513 55.3098C12.3935 50.749 17.9269 48.4709 24.4355 48.4709H24.5008C31.0093 48.4709 36.5428 50.749 41.1011 55.3098C45.6594 59.8706 47.9362 65.407 47.9362 71.9191C47.9362 78.4311 45.6594 83.9676 41.1011 88.5284C36.5428 93.0891 31.0093 95.3672 24.5008 95.3672H24.4355Z" fill="#EEEEEE" stroke="#202124" stroke-width="1.5" stroke-miterlimit="10"/>
<path d="M118.392 189.15C111.883 189.15 106.35 186.872 101.792 182.311C97.2334 177.751 94.9565 172.214 94.9565 165.702C94.9565 159.19 97.2334 153.654 101.792 149.093C106.35 144.532 111.883 142.254 118.392 142.254H163.56C170.069 142.254 175.602 144.532 180.16 149.093C184.719 153.654 186.995 159.19 186.995 165.702C186.995 172.214 184.719 177.751 180.16 182.311C175.602 186.872 170.069 189.15 163.56 189.15H118.392Z" fill="#EEEEEE" stroke="#202124" stroke-width="1.5" stroke-miterlimit="10"/>
<mask id="mask0_3349_12546" style="mask-type:luminance" maskUnits="userSpaceOnUse" x="1" y="48" width="47" height="48">
<path d="M24.4494 95.3679C17.9408 95.3679 12.4074 93.0899 7.84908 88.5291C3.29075 83.9683 1.01392 78.4319 1.01392 71.9198C1.01392 65.4077 3.29075 59.8713 7.84908 55.3105C12.4074 50.7497 17.9408 48.4717 24.4494 48.4717H24.5007C31.0093 48.4717 36.5427 50.7497 41.101 55.3105C45.6593 59.8713 47.9362 65.4077 47.9362 71.9198C47.9362 78.4319 45.6593 83.9683 41.101 88.5291C36.5427 93.0899 31.0093 95.3679 24.5007 95.3679H24.4494Z" fill="white"/>
</mask>
<g mask="url(#mask0_3349_12546)">
<path d="M34.8626 184.775L35.4132 -103.633" stroke="#202124" stroke-width="1.5" stroke-miterlimit="10"/>
<path d="M13.6854 184.734L14.2359 -103.669" stroke="#202124" stroke-width="1.5" stroke-miterlimit="10"/>
<path d="M141.132 61.7509L-112.874 61.2654" stroke="#202124" stroke-width="1.5" stroke-miterlimit="10"/>
<path d="M141.091 82.3505L-112.916 81.865" stroke="#202124" stroke-width="1.5" stroke-miterlimit="10"/>
</g>
<mask id="mask1_3349_12546" style="mask-type:luminance" maskUnits="userSpaceOnUse" x="94" y="142" width="93" height="48">
<path d="M118.392 189.15C111.883 189.15 106.35 186.872 101.792 182.311C97.2334 177.751 94.9565 172.214 94.9565 165.702C94.9565 159.19 97.2334 153.654 101.792 149.093C106.35 144.532 111.883 142.254 118.392 142.254H163.56C170.069 142.254 175.602 144.532 180.16 149.093C184.719 153.654 186.995 159.19 186.995 165.702C186.995 172.214 184.719 177.751 180.16 182.311C175.602 186.872 170.069 189.15 163.56 189.15H118.392Z" fill="white"/>
</mask>
<g mask="url(#mask1_3349_12546)">
<path d="M154.836 196.337L155.386 -92.0662" stroke="#202124" stroke-width="1.5" stroke-miterlimit="10"/>
<path d="M133.658 196.3L134.209 -92.1074" stroke="#202124" stroke-width="1.5" stroke-miterlimit="10"/>
<path d="M112.481 196.259L113.031 -92.144" stroke="#202124" stroke-width="1.5" stroke-miterlimit="10"/>
<path d="M239.769 155.668L-14.2375 155.183" stroke="#202124" stroke-width="1.5" stroke-miterlimit="10"/>
<path d="M239.731 176.264L-14.2751 175.779" stroke="#202124" stroke-width="1.5" stroke-miterlimit="10"/>
</g>
<path d="M95.2688 48.4753C101.777 48.4753 107.311 46.1973 111.869 41.6365C116.427 37.0757 118.704 31.5393 118.704 25.0272C118.704 18.5152 116.427 12.9787 111.869 8.41795C107.311 3.85716 101.777 1.5791 95.2688 1.5791H24.4538C17.9453 1.5791 12.4119 3.85716 7.85353 8.41795C3.29521 12.9787 1.01837 18.5152 1.01837 25.0272C1.01837 31.5393 3.29521 37.0757 7.85353 41.6365C12.4119 46.1973 17.9453 48.4753 24.4538 48.4753H95.2688Z" fill="#EEEEEE" stroke="#202124" stroke-width="1.5" stroke-miterlimit="10"/>
<path d="M24.3563 34.8958C21.6222 34.8958 19.2941 33.9342 17.3765 32.0156C15.4542 30.0923 14.4978 27.7676 14.4978 25.032C14.4978 22.2965 15.4589 19.9671 17.3765 18.0485C19.2987 16.1252 21.6222 15.1682 24.3563 15.1682C27.0903 15.1682 29.4185 16.1299 31.336 18.0485C33.2583 19.9717 34.2148 22.2965 34.2148 25.032C34.2148 27.7676 33.2536 30.097 31.336 32.0156C29.4138 33.9389 27.0903 34.8958 24.3563 34.8958Z" fill="#202124" stroke="#202124" stroke-width="1.5" stroke-miterlimit="10"/>
<path d="M142.135 48.4753C135.627 48.4753 130.093 46.1973 125.535 41.6365C120.977 37.0757 118.7 31.5393 118.7 25.0272C118.7 18.5152 120.977 12.9787 125.535 8.41795C130.093 3.85716 135.627 1.5791 142.135 1.5791H163.565C170.073 1.5791 175.607 3.85716 180.165 8.41795C184.723 12.9787 187 18.5152 187 25.0272C187 31.5393 184.723 37.0757 180.165 41.6365C175.607 46.1973 170.073 48.4753 163.565 48.4753H142.135Z" fill="#EEEEEE" stroke="#202124" stroke-width="1.5" stroke-miterlimit="10"/>
<path d="M24.6126 142.258C18.1041 142.258 12.5706 139.98 8.01232 135.419C3.454 130.859 1.17719 125.322 1.17719 118.81C1.17719 112.298 3.454 106.762 8.01232 102.201C12.5706 97.6401 18.1041 95.3621 24.6126 95.3621H163.564C170.073 95.3621 175.606 97.6401 180.165 102.201C184.723 106.762 187 112.298 187 118.81C187 125.322 184.723 130.859 180.165 135.419C175.606 139.98 170.073 142.258 163.564 142.258H24.6126Z" fill="#EEEEEE" stroke="#202124" stroke-width="1.5" stroke-miterlimit="10"/>
<path d="M163.565 95.3672C170.073 95.3672 175.607 93.0891 180.165 88.5284C184.723 83.9676 187 78.4311 187 71.9191C187 65.407 184.723 59.8706 180.165 55.3098C175.607 50.749 170.073 48.4709 163.565 48.4709H71.9036C65.395 48.4709 59.8616 50.749 55.3033 55.3098C50.745 59.8706 48.4681 65.407 48.4681 71.9191C48.4681 78.4311 50.745 83.9676 55.3033 88.5284C59.8616 93.0891 65.395 95.3672 71.9036 95.3672H163.565Z" fill="url(#paint0_linear_3349_12546)" stroke="#202124" stroke-width="1.5" stroke-miterlimit="10"/>
<path d="M71.8056 81.7877C69.0715 81.7877 66.7434 80.826 64.8258 78.9074C62.9036 76.9841 61.9471 74.6594 61.9471 71.9239C61.9471 69.1883 62.9083 66.8589 64.8258 64.9403C66.7481 63.017 69.0715 62.0601 71.8056 62.0601C74.5397 62.0601 76.8678 63.0217 78.7854 64.9403C80.7076 66.8636 81.6641 69.1883 81.6641 71.9239C81.6641 74.6594 80.703 76.9888 78.7854 78.9074C76.8631 80.8307 74.5397 81.7877 71.8056 81.7877Z" fill="#EEEEEE" stroke="#202124" stroke-width="1.5" stroke-miterlimit="10"/>
<path d="M70.6902 189.15C77.1988 189.15 82.7322 186.872 87.2905 182.311C91.8488 177.751 94.1257 172.214 94.1257 165.702C94.1257 159.19 91.8488 153.654 87.2905 149.093C82.7322 144.532 77.1988 142.254 70.6902 142.254H24.4538C17.9453 142.254 12.4119 144.532 7.85353 149.093C3.29521 153.654 1.01837 159.19 1.01837 165.702C1.01837 172.214 3.29521 177.751 7.85353 182.311C12.4119 186.872 17.9453 189.15 24.4538 189.15H70.6902Z" fill="#202124" stroke="#202124" stroke-width="1.5" stroke-miterlimit="10"/>
<path d="M26.4934 175.575C23.7594 175.575 21.4312 174.613 19.5137 172.695C17.5914 170.772 16.6349 168.447 16.6349 165.711C16.6349 162.976 17.5961 160.646 19.5137 158.728C21.4312 156.809 23.7594 155.847 26.4934 155.847C29.2275 155.847 31.5556 156.809 33.4732 158.728C35.3955 160.651 36.3519 162.976 36.3519 165.711C36.3519 168.447 35.3908 170.776 33.4732 172.695C31.551 174.618 29.2275 175.575 26.4934 175.575Z" fill="#EEEEEE" stroke="#202124" stroke-width="1.5" stroke-miterlimit="10"/>
<defs>
<linearGradient id="paint0_linear_3349_12546" x1="48.4681" y1="71.9191" x2="186.995" y2="71.9191" gradientUnits="userSpaceOnUse">
<stop stop-color="#FFCB32"/>
<stop offset="0.18" stop-color="#FFCB32"/>
<stop offset="0.53" stop-color="#F46831"/>
<stop offset="0.79" stop-color="#EA4335"/>
<stop offset="1" stop-color="#EA4335"/>
</linearGradient>
</defs>
</svg>
