<svg width="147" height="226" viewBox="0 0 147 226" fill="none" xmlns="http://www.w3.org/2000/svg">
<path d="M73.4064 351.499C33.3968 351.421 1.02149 318.952 1.09436 278.979L1.35782 73.8479C1.43629 33.8746 33.9349 1.52864 73.9445 1.60144C113.954 1.67984 146.329 34.149 146.256 74.1224L145.993 279.253C145.915 319.226 113.416 351.572 73.4064 351.499Z" fill="url(#paint0_linear_3349_12687)" stroke="#202124" stroke-width="1.5" stroke-miterlimit="10"/>
<path d="M128 138.282C138.348 124.825 146.223 108.753 146.256 90.3566C146.335 50.3105 113.898 17.7797 73.8155 17.7069C33.7331 17.6285 1.17279 50.0361 1.09993 90.0822C1.0663 107.213 7.32162 122.753 16.9176 135.387H16.9064L64.9818 195.968C69.3594 201.714 78.0081 201.72 82.397 195.985L128 138.282Z" fill="#202124" stroke="#202124" stroke-width="1.5" stroke-miterlimit="10"/>
<mask id="mask0_3349_12687" style="mask-type:luminance" maskUnits="userSpaceOnUse" x="1" y="1" width="146" height="351">
<path d="M73.4064 351.499C33.3968 351.421 1.02149 318.952 1.09436 278.979L1.35782 73.8479C1.43629 33.8746 33.9349 1.52864 73.9445 1.60144C113.954 1.67984 146.329 34.149 146.256 74.1224L145.993 279.253C145.915 319.226 113.416 351.572 73.4064 351.499Z" fill="white"/>
</mask>
<g mask="url(#mask0_3349_12687)">
<path d="M22.4607 385.318L23.1221 39.3398" stroke="#202124" stroke-width="1.5" stroke-miterlimit="10"/>
<path d="M226.858 64.4559L-78.2971 63.8735" stroke="#202124" stroke-width="1.5" stroke-miterlimit="10"/>
<path d="M124.301 385.514L124.962 39.5303" stroke="#202124" stroke-width="1.5" stroke-miterlimit="10"/>
<path d="M98.859 385.463L99.5204 39.4854" stroke="#202124" stroke-width="1.5" stroke-miterlimit="10"/>
<path d="M73.4171 385.413L74.0785 39.4353" stroke="#202124" stroke-width="1.5" stroke-miterlimit="10"/>
<path d="M47.9755 385.368L48.6369 39.3848" stroke="#202124" stroke-width="1.5" stroke-miterlimit="10"/>
<path d="M226.808 89.6229L-78.3422 89.0405" stroke="#202124" stroke-width="1.5" stroke-miterlimit="10"/>
<path d="M226.763 114.33L-78.3925 113.748" stroke="#202124" stroke-width="1.5" stroke-miterlimit="10"/>
<path d="M226.718 139.044L-78.4373 138.461" stroke="#202124" stroke-width="1.5" stroke-miterlimit="10"/>
<path d="M226.668 163.751L-78.4879 163.168" stroke="#202124" stroke-width="1.5" stroke-miterlimit="10"/>
<path d="M226.623 188.464L-78.5326 187.881" stroke="#202124" stroke-width="1.5" stroke-miterlimit="10"/>
<path d="M226.572 213.172L-78.5777 212.589" stroke="#202124" stroke-width="1.5" stroke-miterlimit="10"/>
</g>
<path d="M73.8155 1.60146C33.7331 1.52306 1.17279 33.9307 1.09993 73.9768C1.0663 91.1074 7.32162 106.648 16.9176 119.281H16.9064L64.9818 179.863C69.3594 185.609 78.0081 185.614 82.397 179.88L128 122.177C138.348 108.72 146.223 92.6474 146.256 74.2512C146.335 34.2051 113.898 1.67426 73.8155 1.60146ZM88.6243 85.2217C84.5101 89.3322 79.5271 91.3818 73.6754 91.3818C67.8236 91.3818 62.8406 89.3266 58.7264 85.2217C54.6123 81.1113 52.5608 76.1328 52.5608 70.2863C52.5608 64.4398 54.6179 59.4614 58.7264 55.3509C62.8406 51.2405 67.8236 49.1908 73.6754 49.1908C79.5271 49.1908 84.5101 51.2461 88.6243 55.3509C92.7385 59.4614 94.79 64.4398 94.79 70.2863C94.79 76.1328 92.7329 81.1113 88.6243 85.2217Z" fill="#EEEEEE" stroke="#202124" stroke-width="1.5" stroke-miterlimit="10"/>
<defs>
<linearGradient id="paint0_linear_3349_12687" x1="1.09436" y1="176.548" x2="146.256" y2="176.548" gradientUnits="userSpaceOnUse">
<stop stop-color="#4285F4"/>
<stop offset="0.27" stop-color="#4285F4"/>
<stop offset="0.75" stop-color="#34A853"/>
<stop offset="1" stop-color="#34A853"/>
</linearGradient>
</defs>
</svg>
