<svg xmlns="http://www.w3.org/2000/svg" width="94" height="94" fill="none"><g clip-path="url(#a)"><rect width="94" height="94" fill="#202124" rx="10"/><path fill="url(#b)" stroke="#EEE" stroke-linejoin="round" stroke-width="1.2" d="M21.823 74.978h50.331l7.824 1.832H14l7.823-1.832Z"/><path fill="url(#c)" stroke="#EEE" stroke-linejoin="round" stroke-width="1.2" d="M72.154 26.804h-50.33L14 28.636v2.619h65.977v-2.619l-7.823-1.832Z"/><path fill="#202124" fill-rule="evenodd" d="M45.535 24.186a3.003 3.003 0 0 0-3.003 3.003c0 .22 2.054.4 4.587.4s4.587-.18 4.587-.4v-.002a3.003 3.003 0 0 0-3.004-3.002h-3.167Z" clip-rule="evenodd"/><path fill="#EEE" d="M42.532 27.189h-.6a.6.6 0 0 0 .6.6v-.6Zm0 0 .6.002a.6.6 0 0 0-.6-.602v.6Zm9.174-.002h-.6v.028l.6-.028Zm-8.574.002a2.403 2.403 0 0 1 2.403-2.404v-1.2a3.603 3.603 0 0 0-3.603 3.604h1.2Zm-.6-.6v1.2-1.2Zm.6.6v.002l-1.2-.004v.002h1.2Zm3.987-.2c-1.255 0-2.383-.044-3.191-.115a8.609 8.609 0 0 1-.914-.117 1.71 1.71 0 0 1-.113-.027l-.04-.012.022.01a.546.546 0 0 1 .25.46h-1.2c0 .265.154.43.232.497.082.07.17.113.225.136.117.05.253.085.381.111.267.055.63.1 1.053.138.852.074 2.017.12 3.295.12v-1.2Zm3.986.2a.546.546 0 0 1 .25-.46c.013-.008.021-.011.022-.011l-.04.012a1.71 1.71 0 0 1-.113.027c-.198.04-.507.082-.914.117-.808.07-1.936.115-3.191.115v1.2c1.278 0 2.443-.045 3.295-.12a9.756 9.756 0 0 0 1.052-.137c.129-.026.265-.06.382-.11a.866.866 0 0 0 .225-.137.654.654 0 0 0 .233-.496h-1.2Zm.001.026v-.026h1.2l-.001-.03-1.199.056Zm-2.404-2.43a2.403 2.403 0 0 1 2.404 2.402h1.2a3.603 3.603 0 0 0-3.604-3.602v1.2Zm-3.167 0h3.167v-1.2h-3.167v1.2Z"/><path fill="url(#d)" stroke="#EEE" stroke-linejoin="round" stroke-width="1.2" d="M14 28.898h65.978v35.345H14z"/><path fill="url(#e)" stroke="#EEE" stroke-linejoin="round" stroke-width="1.2" d="M14.01 76.78H80v60.415H14.01z"/><ellipse cx="28.818" cy="43.036" fill="#202124" rx="3.343" ry="3.794"/><ellipse cx="65.507" cy="43.036" fill="#202124" rx="3.343" ry="3.794"/><path fill="#202124" fill-rule="evenodd" d="M51.44 64.243H42.8V75.501c0 .29 1.934.524 4.32.524s4.32-.235 4.32-.524V64.243Z" clip-rule="evenodd"/><path fill="#EEE" d="M42.8 64.243v-.6a.6.6 0 0 0-.6.6h.6Zm8.64 0h.6a.6.6 0 0 0-.6-.6v.6ZM42.8 75.498l.6.032v-.032h-.6Zm8.64.003v-.6a.6.6 0 0 0-.6.6h.6Zm0 0v.6a.6.6 0 0 0 .6-.6h-.6ZM42.8 64.843h8.64v-1.2H42.8v1.2Zm.6 10.655V64.243h-1.2v11.255h1.2Zm0 .003v.029l-1.199-.064a.7.7 0 0 0 0 .035h1.2Zm3.72-.076c-1.176 0-2.231-.058-2.982-.15a5.853 5.853 0 0 1-.833-.147c-.091-.026-.119-.042-.111-.038.004.003.044.026.088.08a.518.518 0 0 1 .118.331h-1.2c0 .387.306.577.382.622.123.073.265.122.392.159.264.075.617.136 1.02.185.812.099 1.917.158 3.126.158v-1.2Zm3.72.076c0-.16.07-.274.118-.332.044-.053.084-.076.089-.079.007-.004-.02.012-.112.038-.173.05-.453.102-.832.148-.752.09-1.806.149-2.983.149v1.2c1.21 0 2.315-.06 3.127-.158.402-.049.755-.11 1.019-.185.127-.037.27-.086.392-.16.076-.044.382-.234.382-.62h-1.2Zm0 0h1.2-1.2Zm.6-.6v1.2-1.2Zm-.6-10.658v11.258h1.2V64.243h-1.2Z"/><path fill="#202124" fill-rule="evenodd" d="M51.44 64.243H42.8v2.986c.997-.24 2.07-.372 3.188-.372 2.025 0 3.903.43 5.451 1.163v-3.777Z" clip-rule="evenodd"/><path fill="#EEE" d="M42.8 64.243v-.6h-.6v.6h.6Zm8.64 0h.6v-.6h-.6v.6ZM42.8 67.23h-.6v.762l.74-.179-.14-.583Zm8.64.79-.258.543.857.406v-.948h-.6Zm-8.64-3.176h8.64v-1.2H42.8v1.2Zm.6 2.386v-2.986h-1.2v2.986h1.2Zm-.46.583c.95-.23 1.977-.355 3.048-.355v-1.2c-1.164 0-2.285.136-3.33.388l.282 1.167Zm3.048-.355c1.942 0 3.732.412 5.194 1.105l.514-1.085c-1.634-.773-3.6-1.22-5.708-1.22v1.2Zm4.851-3.214v3.777h1.2v-3.777h-1.2Z"/><path fill="#202124" stroke="#EEE" stroke-miterlimit="10" stroke-width="1.2" d="M45.987 12.241h2.326v11.966h-2.326z"/><path fill="#202124" fill-rule="evenodd" d="M48.312 12.824h-2.325v.31c.9.12 1.712.786 2.325 1.81v-2.12Z" clip-rule="evenodd"/><path fill="#EEE" d="M45.987 12.824v-.6h-.6v.6h.6Zm2.325 0h.6v-.6h-.6v.6Zm-2.325.31h-.6v.527l.521.069.079-.595Zm2.325 1.81-.514.308 1.114 1.858v-2.167h-.6Zm-2.325-1.52h2.325v-1.2h-2.325v1.2Zm.6-.29v-.31h-1.2v.31h1.2Zm-.679.596c.65.085 1.327.584 1.89 1.522l1.029-.617c-.664-1.108-1.61-1.943-2.762-2.095l-.157 1.19Zm1.804-.906v2.12h1.2v-2.12h-1.2Z"/><ellipse cx="47.119" cy="10.833" fill="#202124" stroke="#EEE" stroke-miterlimit="10" stroke-width="1.2" rx="2.347" ry="1.833"/></g><defs><linearGradient id="b" x1="13.898" x2="79.876" y1="75.894" y2="75.894" gradientUnits="userSpaceOnUse"><stop stop-color="#5382EB"/><stop offset=".25" stop-color="#5382EB"/><stop offset=".52" stop-color="#9F6CD4"/><stop offset=".82" stop-color="#EA4335"/><stop offset="1" stop-color="#EA4335"/></linearGradient><linearGradient id="c" x1="79.947" x2="13.97" y1="29.029" y2="29.029" gradientUnits="userSpaceOnUse"><stop stop-color="#4285F4"/><stop offset=".27" stop-color="#4285F4"/><stop offset=".75" stop-color="#34A853"/><stop offset="1" stop-color="#34A853"/></linearGradient><linearGradient id="d" x1="18.713" x2="73.825" y1="33.218" y2="124.068" gradientUnits="userSpaceOnUse"><stop stop-color="#34A853"/><stop offset=".093" stop-color="#34A853"/><stop offset=".289" stop-color="#4285F4"/><stop offset=".369" stop-color="#4285F4"/><stop offset=".515" stop-color="#9F6CD4"/><stop offset=".647" stop-color="#EA4335"/><stop offset=".722" stop-color="#EA4335"/><stop offset=".82" stop-color="#F46831"/><stop offset=".905" stop-color="#FFCB32"/><stop offset="1" stop-color="#FFCB32"/></linearGradient><linearGradient id="e" x1="25.651" x2="49.738" y1="38.585" y2="121.188" gradientUnits="userSpaceOnUse"><stop stop-color="#34A853"/><stop offset=".093" stop-color="#34A853"/><stop offset=".289" stop-color="#4285F4"/><stop offset=".369" stop-color="#4285F4"/><stop offset=".515" stop-color="#9F6CD4"/><stop offset=".647" stop-color="#EA4335"/><stop offset=".722" stop-color="#EA4335"/><stop offset=".82" stop-color="#F46831"/><stop offset=".905" stop-color="#FFCB32"/><stop offset="1" stop-color="#FFCB32"/></linearGradient><clipPath id="a"><rect width="94" height="94" fill="#fff" rx="10"/></clipPath></defs></svg>