<svg width="248" height="301" viewBox="0 0 248 301" fill="none" xmlns="http://www.w3.org/2000/svg">
<path d="M38.8819 150.763C28.5017 150.763 19.6766 147.129 12.4067 139.856C5.13681 132.582 1.50562 123.752 1.50562 113.366C1.50562 102.98 5.13681 94.1503 12.4067 86.8765C19.6766 79.6027 28.5017 75.9695 38.8819 75.9695H38.9861C49.3664 75.9695 58.1914 79.6027 65.4613 86.8765C72.7312 94.1503 76.3624 102.98 76.3624 113.366C76.3624 123.752 72.7312 132.582 65.4613 139.856C58.1914 147.129 49.3664 150.763 38.9861 150.763H38.8819Z" fill="#EEEEEE" stroke="#202124" stroke-width="2" stroke-miterlimit="10"/>
<path d="M188.729 300.334C178.349 300.334 169.524 296.7 162.254 289.427C154.984 282.153 151.353 273.323 151.353 262.937C151.353 252.551 154.984 243.721 162.254 236.448C169.524 229.174 178.349 225.541 188.729 225.541H260.766C271.146 225.541 279.971 229.174 287.241 236.448C294.511 243.721 298.142 252.551 298.142 262.937C298.142 273.323 294.511 282.153 287.241 289.427C279.971 296.7 271.146 300.334 260.766 300.334H188.729Z" fill="#EEEEEE" stroke="#202124" stroke-width="2" stroke-miterlimit="10"/>
<mask id="mask0_3349_10644" style="mask-type:luminance" maskUnits="userSpaceOnUse" x="1" y="75" width="76" height="76">
<path d="M38.9042 150.763C28.524 150.763 19.6989 147.129 12.429 139.856C5.15914 132.582 1.52789 123.752 1.52789 113.366C1.52789 102.98 5.15914 94.1503 12.429 86.8765C19.6989 79.6027 28.524 75.9695 38.9042 75.9695H38.9861C49.3663 75.9695 58.1914 79.6027 65.4613 86.8765C72.7311 94.1503 76.3624 102.98 76.3624 113.366C76.3624 123.752 72.7311 132.582 65.4613 139.856C58.1914 147.129 49.3663 150.763 38.9861 150.763H38.9042Z" fill="white"/>
</mask>
<g mask="url(#mask0_3349_10644)">
<path d="M55.5126 293.357L56.3906 -166.613" stroke="#202124" stroke-width="2" stroke-miterlimit="10"/>
<path d="M21.7377 293.29L22.6158 -166.673" stroke="#202124" stroke-width="2" stroke-miterlimit="10"/>
<path d="M224.997 97.1505L-180.108 96.3762" stroke="#202124" stroke-width="2" stroke-miterlimit="10"/>
<path d="M224.93 130.006L-180.175 129.231" stroke="#202124" stroke-width="2" stroke-miterlimit="10"/>
</g>
<mask id="mask1_3349_10644" style="mask-type:luminance" maskUnits="userSpaceOnUse" x="151" y="225" width="148" height="76">
<path d="M188.729 300.334C178.349 300.334 169.524 296.7 162.254 289.427C154.984 282.153 151.353 273.323 151.353 262.937C151.353 252.551 154.984 243.721 162.254 236.448C169.524 229.174 178.349 225.541 188.729 225.541H260.766C271.146 225.541 279.971 229.174 287.241 236.448C294.511 243.721 298.142 252.551 298.142 262.937C298.142 273.323 294.511 282.153 287.241 289.427C279.971 296.7 271.146 300.334 260.766 300.334H188.729Z" fill="white"/>
</mask>
<g mask="url(#mask1_3349_10644)">
<path d="M246.851 311.799L247.729 -148.164" stroke="#202124" stroke-width="2" stroke-miterlimit="10"/>
<path d="M213.076 311.739L213.955 -148.231" stroke="#202124" stroke-width="2" stroke-miterlimit="10"/>
<path d="M179.302 311.672L180.18 -148.291" stroke="#202124" stroke-width="2" stroke-miterlimit="10"/>
<path d="M382.308 246.938L-22.7969 246.163" stroke="#202124" stroke-width="2" stroke-miterlimit="10"/>
<path d="M382.248 279.785L-22.8564 279.011" stroke="#202124" stroke-width="2" stroke-miterlimit="10"/>
</g>
<path d="M151.852 75.9769C162.232 75.9769 171.057 72.3437 178.327 65.0699C185.597 57.796 189.228 48.9662 189.228 38.5804C189.228 28.1945 185.597 19.3647 178.327 12.0909C171.057 4.81703 162.232 1.18384 151.852 1.18384H38.9118C28.5316 1.18384 19.7065 4.81703 12.4367 12.0909C5.16677 19.3647 1.53552 28.1945 1.53552 38.5804C1.53552 48.9662 5.16677 57.796 12.4367 65.0699C19.7065 72.3437 28.5316 75.9769 38.9118 75.9769H151.852Z" fill="#EEEEEE" stroke="#202124" stroke-width="2" stroke-miterlimit="10"/>
<path d="M38.7554 54.3192C34.395 54.3192 30.6819 52.7856 27.6236 49.7257C24.5579 46.6583 23.0325 42.9507 23.0325 38.5879C23.0325 34.2251 24.5654 30.51 27.6236 27.45C30.6893 24.3827 34.395 22.8564 38.7554 22.8564C43.1159 22.8564 46.8289 24.3901 49.8872 27.45C52.9529 30.5174 54.4784 34.2251 54.4784 38.5879C54.4784 42.9507 52.9455 46.6657 49.8872 49.7257C46.8215 52.793 43.1159 54.3192 38.7554 54.3192Z" fill="#202124" stroke="#202124" stroke-width="2" stroke-miterlimit="10"/>
<path d="M226.597 75.9769C216.217 75.9769 207.392 72.3437 200.122 65.0699C192.852 57.796 189.221 48.9662 189.221 38.5804C189.221 28.1945 192.852 19.3647 200.122 12.0909C207.392 4.81703 216.217 1.18384 226.597 1.18384H260.774C271.154 1.18384 279.979 4.81703 287.249 12.0909C294.519 19.3647 298.15 28.1945 298.15 38.5804C298.15 48.9662 294.519 57.796 287.249 65.0699C279.979 72.3437 271.154 75.9769 260.774 75.9769H226.597Z" fill="#EEEEEE" stroke="#202124" stroke-width="2" stroke-miterlimit="10"/>
<path d="M39.1647 225.548C28.7845 225.548 19.9594 221.915 12.6895 214.641C5.41959 207.367 1.78839 198.537 1.78839 188.151C1.78839 177.766 5.41959 168.936 12.6895 161.662C19.9594 154.388 28.7845 150.755 39.1647 150.755H260.774C271.154 150.755 279.979 154.388 287.249 161.662C294.519 168.936 298.15 177.766 298.15 188.151C298.15 198.537 294.519 207.367 287.249 214.641C279.979 221.915 271.154 225.548 260.774 225.548H39.1647Z" fill="#EEEEEE" stroke="#202124" stroke-width="2" stroke-miterlimit="10"/>
<path d="M260.774 150.763C271.154 150.763 279.979 147.129 287.249 139.856C294.519 132.582 298.15 123.752 298.15 113.366C298.15 102.98 294.519 94.1503 287.249 86.8765C279.979 79.6027 271.154 75.9695 260.774 75.9695H114.587C104.207 75.9695 95.3817 79.6027 88.1118 86.8765C80.8419 94.1503 77.2107 102.98 77.2107 113.366C77.2107 123.752 80.8419 132.582 88.1118 139.856C95.3817 147.129 104.207 150.763 114.587 150.763H260.774Z" fill="url(#paint0_linear_3349_10644)" stroke="#202124" stroke-width="2" stroke-miterlimit="10"/>
<path d="M114.431 129.105C110.07 129.105 106.357 127.571 103.299 124.511C100.233 121.444 98.7078 117.736 98.7078 113.373C98.7078 109.011 100.241 105.296 103.299 102.236C106.365 99.1683 110.07 97.6421 114.431 97.6421C118.791 97.6421 122.504 99.1758 125.562 102.236C128.628 105.303 130.154 109.011 130.154 113.373C130.154 117.736 128.621 121.451 125.562 124.511C122.497 127.579 118.791 129.105 114.431 129.105Z" fill="#EEEEEE" stroke="#202124" stroke-width="2" stroke-miterlimit="10"/>
<path d="M112.652 300.334C123.033 300.334 131.858 296.7 139.128 289.427C146.397 282.153 150.029 273.323 150.029 262.937C150.029 252.551 146.397 243.721 139.128 236.448C131.858 229.174 123.033 225.541 112.652 225.541H38.9116C28.5314 225.541 19.7064 229.174 12.4365 236.448C5.16658 243.721 1.53534 252.551 1.53534 262.937C1.53534 273.323 5.16658 282.153 12.4365 289.427C19.7064 296.7 28.5314 300.334 38.9116 300.334H112.652Z" fill="#202124" stroke="#202124" stroke-width="2" stroke-miterlimit="10"/>
<path d="M42.1634 278.684C37.803 278.684 34.0899 277.15 31.0316 274.09C27.9659 271.023 26.4405 267.315 26.4405 262.952C26.4405 258.589 27.9734 254.874 31.0316 251.814C34.0899 248.754 37.803 247.221 42.1634 247.221C46.5238 247.221 50.2369 248.754 53.2952 251.814C56.3609 254.882 57.8863 258.589 57.8863 262.952C57.8863 267.315 56.3535 271.03 53.2952 274.09C50.2295 277.157 46.5238 278.684 42.1634 278.684Z" fill="#EEEEEE" stroke="#202124" stroke-width="2" stroke-miterlimit="10"/>
<defs>
<linearGradient id="paint0_linear_3349_10644" x1="77.2107" y1="113.366" x2="298.142" y2="113.366" gradientUnits="userSpaceOnUse">
<stop stop-color="#FFCB32"/>
<stop offset="0.18" stop-color="#FFCB32"/>
<stop offset="0.53" stop-color="#F46831"/>
<stop offset="0.79" stop-color="#EA4335"/>
<stop offset="1" stop-color="#EA4335"/>
</linearGradient>
</defs>
</svg>
