<svg width="164" height="190" viewBox="0 0 164 190" fill="none" xmlns="http://www.w3.org/2000/svg">
<path d="M24.4355 95.3672C17.9269 95.3672 12.3935 93.0891 7.83513 88.5284C3.27681 83.9676 1 78.4311 1 71.9191C1 65.407 3.27681 59.8706 7.83513 55.3098C12.3935 50.749 17.9269 48.4709 24.4355 48.4709H24.5008C31.0093 48.4709 36.5428 50.749 41.1011 55.3098C45.6594 59.8706 47.9362 65.407 47.9362 71.9191C47.9362 78.4311 45.6594 83.9676 41.1011 88.5284C36.5428 93.0891 31.0093 95.3672 24.5008 95.3672H24.4355Z" fill="#202124" stroke="#EEEEEE" stroke-width="1.5" stroke-miterlimit="10"/>
<path d="M118.392 189.15C111.883 189.15 106.35 186.872 101.792 182.311C97.2334 177.751 94.9565 172.214 94.9565 165.702C94.9565 159.19 97.2334 153.654 101.792 149.093C106.35 144.532 111.883 142.254 118.392 142.254H163.56C170.069 142.254 175.602 144.532 180.16 149.093C184.719 153.654 186.995 159.19 186.995 165.702C186.995 172.214 184.719 177.751 180.16 182.311C175.602 186.872 170.069 189.15 163.56 189.15H118.392Z" fill="#202124" stroke="#EEEEEE" stroke-width="1.5" stroke-miterlimit="10"/>
<mask id="mask0_3349_10714" style="mask-type:luminance" maskUnits="userSpaceOnUse" x="1" y="48" width="47" height="48">
<path d="M24.4491 95.3679C17.9406 95.3679 12.4072 93.0899 7.84883 88.5291C3.29051 83.9683 1.01367 78.4319 1.01367 71.9198C1.01367 65.4077 3.29051 59.8713 7.84883 55.3105C12.4072 50.7497 17.9406 48.4717 24.4491 48.4717H24.5005C31.009 48.4717 36.5424 50.7497 41.1008 55.3105C45.6591 59.8713 47.9359 65.4077 47.9359 71.9198C47.9359 78.4319 45.6591 83.9683 41.1008 88.5291C36.5424 93.0899 31.009 95.3679 24.5005 95.3679H24.4491Z" fill="white"/>
</mask>
<g mask="url(#mask0_3349_10714)">
<path d="M34.8623 184.775L35.4128 -103.633" stroke="#EEEEEE" stroke-width="1.5" stroke-miterlimit="10"/>
<path d="M13.6851 184.734L14.2356 -103.669" stroke="#EEEEEE" stroke-width="1.5" stroke-miterlimit="10"/>
<path d="M141.132 61.7509L-112.875 61.2654" stroke="#EEEEEE" stroke-width="1.5" stroke-miterlimit="10"/>
<path d="M141.09 82.3505L-112.916 81.865" stroke="#EEEEEE" stroke-width="1.5" stroke-miterlimit="10"/>
</g>
<mask id="mask1_3349_10714" style="mask-type:luminance" maskUnits="userSpaceOnUse" x="94" y="142" width="93" height="48">
<path d="M118.392 189.15C111.883 189.15 106.35 186.872 101.792 182.311C97.2334 177.751 94.9565 172.214 94.9565 165.702C94.9565 159.19 97.2334 153.654 101.792 149.093C106.35 144.532 111.883 142.254 118.392 142.254H163.56C170.069 142.254 175.602 144.532 180.16 149.093C184.719 153.654 186.995 159.19 186.995 165.702C186.995 172.214 184.719 177.751 180.16 182.311C175.602 186.872 170.069 189.15 163.56 189.15H118.392Z" fill="white"/>
</mask>
<g mask="url(#mask1_3349_10714)">
<path d="M154.835 196.337L155.386 -92.0662" stroke="#EEEEEE" stroke-width="1.5" stroke-miterlimit="10"/>
<path d="M133.658 196.3L134.208 -92.1074" stroke="#EEEEEE" stroke-width="1.5" stroke-miterlimit="10"/>
<path d="M112.48 196.259L113.031 -92.144" stroke="#EEEEEE" stroke-width="1.5" stroke-miterlimit="10"/>
<path d="M239.768 155.668L-14.2378 155.183" stroke="#EEEEEE" stroke-width="1.5" stroke-miterlimit="10"/>
<path d="M239.731 176.264L-14.2754 175.779" stroke="#EEEEEE" stroke-width="1.5" stroke-miterlimit="10"/>
</g>
<path d="M95.269 48.4753C101.778 48.4753 107.311 46.1973 111.869 41.6365C116.428 37.0757 118.704 31.5393 118.704 25.0272C118.704 18.5152 116.428 12.9787 111.869 8.41795C107.311 3.85716 101.778 1.5791 95.269 1.5791H24.454C17.9455 1.5791 12.412 3.85716 7.85371 8.41795C3.29539 12.9787 1.01855 18.5152 1.01855 25.0272C1.01855 31.5393 3.29539 37.0757 7.85371 41.6365C12.412 46.1973 17.9455 48.4753 24.454 48.4753H95.269Z" fill="#202124" stroke="#EEEEEE" stroke-width="1.5" stroke-miterlimit="10"/>
<path d="M24.356 34.8958C21.622 34.8958 19.2938 33.9342 17.3762 32.0156C15.454 30.0923 14.4976 27.7676 14.4976 25.032C14.4976 22.2965 15.4587 19.9671 17.3762 18.0485C19.2985 16.1252 21.622 15.1682 24.356 15.1682C27.0901 15.1682 29.4182 16.1299 31.3358 18.0485C33.258 19.9717 34.2145 22.2965 34.2145 25.032C34.2145 27.7676 33.2534 30.097 31.3358 32.0156C29.4136 33.9389 27.0901 34.8958 24.356 34.8958Z" fill="#EEEEEE" stroke="#EEEEEE" stroke-width="1.5" stroke-miterlimit="10"/>
<path d="M142.136 48.4753C135.627 48.4753 130.094 46.1973 125.535 41.6365C120.977 37.0757 118.7 31.5393 118.7 25.0272C118.7 18.5152 120.977 12.9787 125.535 8.41795C130.094 3.85716 135.627 1.5791 142.136 1.5791H163.565C170.073 1.5791 175.607 3.85716 180.165 8.41795C184.724 12.9787 187 18.5152 187 25.0272C187 31.5393 184.724 37.0757 180.165 41.6365C175.607 46.1973 170.073 48.4753 163.565 48.4753H142.136Z" fill="#202124" stroke="#EEEEEE" stroke-width="1.5" stroke-miterlimit="10"/>
<path d="M24.6127 142.258C18.1041 142.258 12.5707 139.98 8.01238 135.419C3.45406 130.859 1.17725 125.322 1.17725 118.81C1.17725 112.298 3.45406 106.762 8.01238 102.201C12.5707 97.6401 18.1041 95.3621 24.6127 95.3621H163.564C170.073 95.3621 175.606 97.6401 180.165 102.201C184.723 106.762 187 112.298 187 118.81C187 125.322 184.723 130.859 180.165 135.419C175.606 139.98 170.073 142.258 163.564 142.258H24.6127Z" fill="#202124" stroke="#EEEEEE" stroke-width="1.5" stroke-miterlimit="10"/>
<path d="M163.565 95.3672C170.073 95.3672 175.607 93.0891 180.165 88.5284C184.723 83.9676 187 78.4311 187 71.9191C187 65.407 184.723 59.8706 180.165 55.3098C175.607 50.749 170.073 48.4709 163.565 48.4709H71.9037C65.3952 48.4709 59.8617 50.749 55.3034 55.3098C50.7451 59.8706 48.4683 65.407 48.4683 71.9191C48.4683 78.4311 50.7451 83.9676 55.3034 88.5284C59.8617 93.0891 65.3952 95.3672 71.9037 95.3672H163.565Z" fill="url(#paint0_linear_3349_10714)" stroke="#EEEEEE" stroke-width="1.5" stroke-miterlimit="10"/>
<path d="M71.8057 81.7877C69.0717 81.7877 66.7435 80.826 64.826 78.9074C62.9037 76.9841 61.9473 74.6594 61.9473 71.9239C61.9473 69.1883 62.9084 66.8589 64.826 64.9403C66.7482 63.017 69.0717 62.0601 71.8057 62.0601C74.5398 62.0601 76.8679 63.0217 78.7855 64.9403C80.7078 66.8636 81.6642 69.1883 81.6642 71.9239C81.6642 74.6594 80.7031 76.9888 78.7855 78.9074C76.8633 80.8307 74.5398 81.7877 71.8057 81.7877Z" fill="#202124" stroke="#EEEEEE" stroke-width="1.5" stroke-miterlimit="10"/>
<path d="M70.6904 189.15C77.199 189.15 82.7324 186.872 87.2907 182.311C91.849 177.751 94.1259 172.214 94.1259 165.702C94.1259 159.19 91.849 153.654 87.2907 149.093C82.7324 144.532 77.199 142.254 70.6904 142.254H24.454C17.9455 142.254 12.412 144.532 7.85371 149.093C3.29539 153.654 1.01855 159.19 1.01855 165.702C1.01855 172.214 3.29539 177.751 7.85371 182.311C12.412 186.872 17.9455 189.15 24.454 189.15H70.6904Z" fill="#EEEEEE" stroke="#EEEEEE" stroke-width="1.5" stroke-miterlimit="10"/>
<path d="M26.4932 175.575C23.7592 175.575 21.4311 174.613 19.5135 172.695C17.5912 170.772 16.6348 168.447 16.6348 165.711C16.6348 162.976 17.5959 160.646 19.5135 158.728C21.4311 156.809 23.7592 155.847 26.4932 155.847C29.2273 155.847 31.5555 156.809 33.473 158.728C35.3953 160.651 36.3517 162.976 36.3517 165.711C36.3517 168.447 35.3906 170.776 33.473 172.695C31.5508 174.618 29.2273 175.575 26.4932 175.575Z" fill="#202124" stroke="#EEEEEE" stroke-width="1.5" stroke-miterlimit="10"/>
<defs>
<linearGradient id="paint0_linear_3349_10714" x1="48.4683" y1="71.9191" x2="186.995" y2="71.9191" gradientUnits="userSpaceOnUse">
<stop stop-color="#FFCB32"/>
<stop offset="0.18" stop-color="#FFCB32"/>
<stop offset="0.53" stop-color="#F46831"/>
<stop offset="0.79" stop-color="#EA4335"/>
<stop offset="1" stop-color="#EA4335"/>
</linearGradient>
</defs>
</svg>
