<svg width="207" height="299" viewBox="0 0 207 299" fill="none" xmlns="http://www.w3.org/2000/svg">
<path d="M102.919 493.898C46.5806 493.788 0.991805 448.067 1.09441 391.779L1.4654 102.928C1.5759 46.6404 47.3383 1.09297 103.677 1.19549C160.016 1.30588 205.604 47.0268 205.502 103.314L205.131 392.165C205.02 448.453 159.258 494.001 102.919 493.898Z" fill="url(#paint0_linear_3349_11124)" stroke="#202124" stroke-width="2" stroke-miterlimit="10"/>
<path d="M179.795 193.66C194.365 174.711 205.454 152.079 205.502 126.175C205.612 69.7849 159.937 23.9772 103.495 23.8747C47.0541 23.7643 1.20493 69.3985 1.10232 125.789C1.05496 149.911 9.86329 171.794 23.3757 189.584H23.36L91.0564 274.89C97.2207 282.981 109.399 282.989 115.579 274.914L179.795 193.66Z" fill="#202124" stroke="#202124" stroke-width="2" stroke-miterlimit="10"/>
<mask id="mask0_3349_11124" style="mask-type:luminance" maskUnits="userSpaceOnUse" x="1" y="1" width="205" height="493">
<path d="M102.919 493.898C46.5806 493.788 0.991805 448.067 1.09441 391.779L1.4654 102.928C1.5759 46.6404 47.3383 1.09297 103.677 1.19549C160.016 1.30588 205.604 47.0268 205.502 103.314L205.131 392.165C205.02 448.453 159.258 494.001 102.919 493.898Z" fill="white"/>
</mask>
<g mask="url(#mask0_3349_11124)">
<path d="M31.1817 541.52L32.1131 54.3369" stroke="#202124" stroke-width="2" stroke-miterlimit="10"/>
<path d="M319 89.7039L-110.699 88.8838" stroke="#202124" stroke-width="2" stroke-miterlimit="10"/>
<path d="M174.586 541.796L175.517 54.605" stroke="#202124" stroke-width="2" stroke-miterlimit="10"/>
<path d="M138.76 541.724L139.692 54.5417" stroke="#202124" stroke-width="2" stroke-miterlimit="10"/>
<path d="M102.935 541.654L103.866 54.4709" stroke="#202124" stroke-width="2" stroke-miterlimit="10"/>
<path d="M67.1097 541.59L68.0411 54.3999" stroke="#202124" stroke-width="2" stroke-miterlimit="10"/>
<path d="M318.929 125.142L-110.762 124.322" stroke="#202124" stroke-width="2" stroke-miterlimit="10"/>
<path d="M318.866 159.933L-110.833 159.113" stroke="#202124" stroke-width="2" stroke-miterlimit="10"/>
<path d="M318.803 194.733L-110.896 193.913" stroke="#202124" stroke-width="2" stroke-miterlimit="10"/>
<path d="M318.732 229.524L-110.967 228.704" stroke="#202124" stroke-width="2" stroke-miterlimit="10"/>
<path d="M318.669 264.324L-111.031 263.503" stroke="#202124" stroke-width="2" stroke-miterlimit="10"/>
<path d="M318.598 299.115L-111.094 298.295" stroke="#202124" stroke-width="2" stroke-miterlimit="10"/>
</g>
<path d="M103.495 1.19551C47.054 1.08511 1.20484 46.7193 1.10223 103.109C1.05488 127.232 9.8632 149.114 23.3757 166.904H23.3599L91.0563 252.211C97.2206 260.302 109.399 260.31 115.579 252.235L179.795 170.981C194.365 152.032 205.454 129.4 205.502 103.496C205.612 47.1057 159.937 1.29803 103.495 1.19551ZM124.348 118.944C118.555 124.732 111.538 127.618 103.298 127.618C95.058 127.618 88.0413 124.724 82.248 118.944C76.4547 113.156 73.5659 106.145 73.5659 97.9129C73.5659 89.6803 76.4626 82.6699 82.248 76.8819C88.0413 71.0938 95.058 68.2077 103.298 68.2077C111.538 68.2077 118.555 71.1017 124.348 76.8819C130.141 82.6699 133.03 89.6803 133.03 97.9129C133.03 106.145 130.134 113.156 124.348 118.944Z" fill="#EEEEEE" stroke="#202124" stroke-width="2" stroke-miterlimit="10"/>
<defs>
<linearGradient id="paint0_linear_3349_11124" x1="1.09441" y1="247.543" x2="205.502" y2="247.543" gradientUnits="userSpaceOnUse">
<stop stop-color="#4285F4"/>
<stop offset="0.27" stop-color="#4285F4"/>
<stop offset="0.75" stop-color="#34A853"/>
<stop offset="1" stop-color="#34A853"/>
</linearGradient>
</defs>
</svg>
