<svg width="128" height="128" viewBox="0 0 128 128" fill="none" xmlns="http://www.w3.org/2000/svg">
<path d="M64 0.320312C99.1695 0.320312 127.68 28.8305 127.68 64C127.68 99.1695 99.1695 127.68 64 127.68C28.8305 127.68 0.320312 99.1695 0.320312 64C0.320312 28.8305 28.8305 0.320312 64 0.320312Z" fill="black"/>
<mask id="mask0_251_278" style="mask-type:alpha" maskUnits="userSpaceOnUse" x="-1" y="-1" width="130" height="130">
<path d="M64 0C99.3464 0 128 28.6536 128 64C128 99.3464 99.3464 128 64 128C28.6536 128 0 99.3464 0 64C0 28.6536 28.6536 0 64 0Z" fill="black"/>
<path d="M64 0C99.3464 0 128 28.6536 128 64C128 99.3464 99.3464 128 64 128C28.6536 128 0 99.3464 0 64C0 28.6536 28.6536 0 64 0Z" stroke="white" stroke-width="0.00263888"/>
</mask>
<g mask="url(#mask0_251_278)">
<path d="M88.1606 60.332C88.1146 60.7835 88.055 61.2306 87.9808 61.6723L98.8516 70.755L64.6692 70.8541L75.4495 75.4777L92.6955 138.859L37.9037 137.827C37.9037 137.827 41.2447 104.992 44.0373 77.545C44.1798 76.1457 44.3208 74.76 44.4598 73.3936C44.4765 73.2295 44.4931 73.0659 44.5097 72.9022C44.8982 69.0849 45.2708 65.4224 45.6163 62.0259C45.8298 59.9288 46.0327 57.9331 46.2227 56.0653C47.4011 44.4847 57.7442 36.0517 69.3249 37.23C80.9056 38.4083 89.3392 48.7514 88.1606 60.332Z" fill="white"/>
</g>
<mask id="mask1_251_278" style="mask-type:alpha" maskUnits="userSpaceOnUse" x="0" y="0" width="128" height="128">
<path d="M64 0C99.3464 0 128 28.6536 128 64C128 99.3464 99.3464 128 64 128C28.6536 128 0 99.3464 0 64C0 28.6536 28.6536 0 64 0Z" fill="black"/>
</mask>
<g mask="url(#mask1_251_278)">
<path d="M76.9962 56.2961C76.9797 58.7109 75.0088 60.655 72.5939 60.6386C70.1791 60.6222 68.235 58.6513 68.2515 56.2364C68.2679 53.8216 70.2389 51.8776 72.6537 51.8939C75.0685 51.9103 77.0126 53.8813 76.9962 56.2961Z" fill="black"/>
</g>
<mask id="mask2_251_278" style="mask-type:alpha" maskUnits="userSpaceOnUse" x="0" y="0" width="128" height="128">
<path d="M64 0C99.3464 0 128 28.6536 128 64C128 99.3464 99.3464 128 64 128C28.6536 128 0 99.3464 0 64C0 28.6536 28.6536 0 64 0Z" fill="black"/>
</mask>
<g mask="url(#mask2_251_278)">
<path d="M67.0448 24.7596C66.5769 27.7745 63.7536 29.8393 60.7384 29.3712C57.7235 28.9033 55.6586 26.08 56.1267 23.0648C56.5946 20.0499 59.418 17.985 62.4331 18.4532C65.4481 18.9211 67.513 21.7444 67.0448 24.7596Z" fill="white"/>
</g>
<mask id="mask3_251_278" style="mask-type:alpha" maskUnits="userSpaceOnUse" x="0" y="0" width="128" height="128">
<path d="M64 0C99.3464 0 128 28.6536 128 64C128 99.3464 99.3464 128 64 128C28.6536 128 0 99.3464 0 64C0 28.6536 28.6536 0 64 0Z" fill="black"/>
</mask>
<g mask="url(#mask3_251_278)">
<path d="M43.1582 32.3582C46.1732 32.8264 48.9965 30.7615 49.4647 27.7466C49.9326 24.7314 47.8682 21.9081 44.853 21.4399C41.8381 20.9721 39.0147 23.0369 38.5466 26.0518C38.0787 29.0667 40.1431 31.8903 43.1582 32.3582Z" fill="white"/>
</g>
<mask id="mask4_251_278" style="mask-type:alpha" maskUnits="userSpaceOnUse" x="0" y="0" width="128" height="128">
<path d="M64 0C99.3464 0 128 28.6536 128 64C128 99.3464 99.3464 128 64 128C28.6536 128 0 99.3464 0 64C0 28.6536 28.6536 0 64 0Z" fill="black"/>
</mask>
<g mask="url(#mask4_251_278)">
<path d="M35.0296 47.8213C38.0445 48.2892 40.8681 46.2246 41.336 43.2094C41.8042 40.1945 39.7393 37.3712 36.7243 36.903C33.7092 36.4349 30.8858 38.4995 30.4177 41.5147C29.9498 44.5296 32.0147 47.3531 35.0296 47.8213Z" fill="white"/>
</g>
</svg>
