<svg width="20" height="20" viewBox="0 0 20 20" fill="none" xmlns="http://www.w3.org/2000/svg">
<g clip-path="url(#clip0_282_196)">
<path d="M17.9999 0C19.0999 0 19.9999 0.9 19.9999 2V18C19.9999 19.1 19.0999 20 17.9999 20H1.99988C0.899903 20 -0.000354838 19.1 0.00964355 18V2C0.00964355 0.900018 0.899902 2.87423e-05 1.99988 0H17.9999ZM6.3905 2.78027L6.20398 2.78516C4.29676 2.88205 2.78015 4.45932 2.78015 6.39062V13.6104L2.78503 13.7959C2.87865 15.6416 4.35831 17.1221 6.20398 17.2158L6.3905 17.2207H13.6102L13.7958 17.2158C15.6417 17.1223 17.1221 15.6418 17.2157 13.7959L17.2206 13.6104V6.39062C17.2206 4.45918 15.7032 2.88184 13.7958 2.78516L13.6102 2.78027H6.3905ZM13.6102 4.58496C14.607 4.58507 15.4149 5.39382 15.4149 6.39062V13.6104C15.4147 14.607 14.6069 15.4149 13.6102 15.415H6.3905C5.39374 15.415 4.58502 14.6071 4.58484 13.6104V6.39062C4.58484 5.39375 5.39363 4.58496 6.3905 4.58496H13.6102ZM10.0009 7.29297C8.25633 7.29297 6.84167 8.70762 6.84167 10.4521L6.84558 10.6143C6.92767 12.2292 8.22282 13.5245 9.83777 13.6064L10.0009 13.6104C11.6904 13.6099 13.0704 12.2828 13.1552 10.6143L13.1591 10.4521C13.1591 8.76226 11.8318 7.38167 10.163 7.29688L10.0009 7.29297ZM10.0009 9.09766C10.7481 9.0981 11.3544 9.70476 11.3544 10.4521C11.3539 11.1991 10.7478 11.8052 10.0009 11.8057C9.25349 11.8057 8.64684 11.1994 8.64636 10.4521C8.64636 9.70449 9.2532 9.09766 10.0009 9.09766ZM13.6102 5.4873C13.1118 5.4873 12.7079 5.89219 12.7079 6.39062C12.7082 6.88877 13.112 7.29297 13.6102 7.29297C14.1083 7.29283 14.5122 6.88869 14.5126 6.39062C14.5126 5.89227 14.1085 5.48744 13.6102 5.4873Z" fill="#5F6368"/>
</g>
<defs>
<clipPath id="clip0_282_196">
<rect width="20" height="20" fill="white"/>
</clipPath>
</defs>
</svg>
