<svg width="20" height="20" viewBox="0 0 20 20" fill="none" xmlns="http://www.w3.org/2000/svg">
<g clip-path="url(#clip0_282_196)">
<path d="M18 0C19.1 0 20 0.9 20 2V18C20 19.1 19.1 20 18 20H1.99996C0.899985 20 -0.000272352 19.1 0.00972604 18V2C0.00972604 0.900018 0.899985 2.87423e-05 1.99996 0H18ZM6.28219 2.56348C4.22866 2.56351 2.56344 4.22869 2.56344 6.28223V13.7188C2.56367 15.7721 4.2288 17.4365 6.28219 17.4365H13.7187C15.772 17.4363 17.4363 15.772 17.4365 13.7188V6.28223C17.4365 4.22879 15.7721 2.56368 13.7187 2.56348H6.28219ZM10.167 7.21484C11.8859 7.30195 13.2527 8.72431 13.2529 10.4648L13.249 10.6318C13.1618 12.3508 11.7405 13.7176 9.99996 13.7178L9.83199 13.7139C8.1687 13.6292 6.83427 12.2952 6.74996 10.6318L6.74605 10.4648C6.74629 8.66835 8.20348 7.21122 9.99996 7.21094L10.167 7.21484ZM9.99996 8.44727C8.8861 8.44754 7.98262 9.35097 7.98238 10.4648C7.98262 11.5787 8.8861 12.4821 9.99996 12.4824C11.1139 12.4822 12.0173 11.5787 12.0175 10.4648C12.0173 9.35093 11.1139 8.44748 9.99996 8.44727ZM13.7187 5.35254C14.2319 5.35278 14.6474 5.76898 14.6474 6.28223C14.6471 6.79522 14.2317 7.2107 13.7187 7.21094C13.2055 7.2109 12.7893 6.79535 12.789 6.28223C12.789 5.76886 13.2054 5.35258 13.7187 5.35254Z" fill="#5F6368"/>
</g>
<defs>
<clipPath id="clip0_282_196">
<rect width="20" height="20" fill="white"/>
</clipPath>
</defs>
</svg>
