<svg width="20" height="20" viewBox="0 0 20 20" fill="none" xmlns="http://www.w3.org/2000/svg">
<g clip-path="url(#clip0_282_196)">
<path d="M17.9999 0C19.0999 0 19.9999 0.9 19.9999 2V18C19.9999 19.1 19.0999 20 17.9999 20H1.99988C0.899903 20 -0.000354838 19.1 0.00964355 18V2C0.00964355 0.900018 0.899902 2.87423e-05 1.99988 0H17.9999ZM5.99988 2C3.79078 2.00004 1.99988 3.79089 1.99988 6V14C1.99988 16.2091 3.79078 18 5.99988 18H13.9999C16.1399 18 17.8878 16.3194 17.995 14.2061L17.9999 14V6C17.9999 3.85996 16.3193 2.11211 14.2059 2.00488L13.9999 2H5.99988ZM13.9999 3C15.6567 3 16.9999 4.34315 16.9999 6V14C16.9999 15.6569 15.6567 17 13.9999 17H5.99988C4.34306 17 2.99988 15.6568 2.99988 14V6C2.99988 4.34317 4.34306 3.00004 5.99988 3H13.9999ZM9.99988 7C8.06692 7.00004 6.49988 8.56703 6.49988 10.5C6.49988 12.433 8.06692 14 9.99988 14C11.9329 14 13.4999 12.433 13.4999 10.5C13.4999 8.567 11.9329 7 9.99988 7ZM9.99988 8C11.3806 8 12.4999 9.11929 12.4999 10.5C12.4999 11.8807 11.3806 13 9.99988 13C8.6192 13 7.49988 11.8807 7.49988 10.5C7.49988 9.11932 8.6192 8.00004 9.99988 8ZM13.9999 5C13.4476 5.00004 12.9999 5.44774 12.9999 6C12.9999 6.55226 13.4476 6.99996 13.9999 7C14.5522 7 14.9999 6.55228 14.9999 6C14.9999 5.44772 14.5522 5 13.9999 5Z" fill="#5F6368"/>
</g>
<defs>
<clipPath id="clip0_282_196">
<rect width="20" height="20" fill="white"/>
</clipPath>
</defs>
</svg>
